FontsManager.addFont({"glyphs":{"S":{"x_min":91,"x_max":870,"ha":950,"o":"m 870 288 q 842 171 870 229 q 765 74 815 114 q 638 6 711 30 q 464 -18 566 -18 q 268 2 355 -18 q 91 62 181 22 l 91 231 l 100 231 q 277 132 177 167 q 466 98 377 98 q 660 144 590 98 q 730 269 730 191 q 697 368 730 336 q 597 417 664 400 q 486 440 546 431 q 360 462 427 449 q 161 559 226 491 q 97 739 97 628 q 204 946 97 865 q 476 1028 311 1028 q 671 1007 582 1028 q 829 957 760 987 l 829 799 l 819 799 q 667 879 761 847 q 475 912 574 912 q 302 867 367 912 q 237 752 237 822 q 269 653 237 689 q 384 598 302 617 q 507 575 427 588 q 643 547 587 561 q 813 457 756 517 q 870 288 870 396 "},"/":{"x_min":-20,"x_max":584,"ha":631,"o":"m 584 1055 l 97 -206 l -20 -206 l 464 1055 l 584 1055 "},"ђ":{"x_min":12,"x_max":761,"ha":879,"o":"m 633 335 q 632 377 633 352 q 631 432 632 402 q 624 529 630 486 q 601 601 618 573 q 553 644 583 630 q 475 658 523 658 q 362 631 421 658 q 253 566 304 605 l 253 0 l 125 0 l 125 859 l 12 859 l 12 951 l 125 951 l 125 1055 l 253 1055 l 253 951 l 471 951 l 471 859 l 253 859 l 253 673 q 378 751 312 723 q 510 779 443 779 q 693 703 630 779 q 758 492 756 628 q 759 423 758 460 q 761 336 761 387 q 760 259 761 297 q 758 182 759 221 q 728 -24 756 62 q 651 -165 699 -111 q 541 -246 604 -220 q 406 -273 478 -273 q 382 -273 390 -273 q 346 -271 374 -273 l 346 -164 l 392 -164 q 572 -80 519 -164 q 631 230 625 2 q 632 279 632 253 q 633 335 633 304 "},"y":{"x_min":41,"x_max":781,"ha":822,"o":"m 781 758 l 338 -279 l 201 -279 l 343 37 l 41 758 l 179 758 l 412 196 l 647 758 l 781 758 "},"≈":{"x_min":165,"x_max":971,"ha":1137,"o":"m 970 749 q 894 550 956 617 q 726 483 833 483 q 626 508 673 483 q 541 564 579 533 q 461 618 497 599 q 396 637 426 637 q 317 604 345 637 q 270 488 288 571 l 165 488 q 241 677 180 611 q 409 744 301 744 q 506 718 458 744 q 594 662 554 693 q 672 610 636 630 q 739 590 708 590 q 820 627 790 590 q 864 749 851 664 l 970 749 m 971 399 q 895 208 954 274 q 725 142 836 142 q 627 167 676 142 q 540 223 578 192 q 470 270 513 244 q 395 296 427 296 q 313 258 342 296 q 271 137 284 221 l 165 137 q 239 335 177 267 q 409 403 302 403 q 508 377 461 403 q 594 321 555 352 q 660 275 618 302 q 738 249 702 249 q 818 282 789 249 q 865 399 846 316 l 971 399 "},"‗":{"x_min":-3,"x_max":886,"ha":883,"o":"m 886 -137 l -3 -137 l -3 -56 l 886 -56 l 886 -137 m 886 -286 l -3 -286 l -3 -205 l 886 -205 l 886 -286 "},"g":{"x_min":73,"x_max":740,"ha":865,"o":"m 740 86 q 652 -195 740 -105 q 382 -286 564 -286 q 265 -277 322 -286 q 152 -253 207 -269 l 152 -123 l 158 -123 q 257 -153 190 -135 q 393 -171 325 -171 q 501 -155 458 -171 q 567 -112 544 -140 q 601 -48 591 -86 q 612 33 612 -11 l 612 102 q 501 33 554 56 q 367 11 449 11 q 152 109 232 11 q 73 385 73 207 q 100 554 73 483 q 175 677 127 625 q 282 752 219 725 q 407 779 345 779 q 518 765 473 779 q 612 725 562 752 l 620 758 l 740 758 l 740 86 m 612 207 l 612 621 q 517 654 561 644 q 430 664 473 664 q 265 593 325 664 q 205 388 205 522 q 249 194 205 260 q 398 129 294 129 q 509 150 453 129 q 612 207 565 171 "},"е":{"x_min":72,"x_max":759,"ha":827,"o":"m 759 366 l 202 366 q 222 244 202 296 q 280 159 243 192 q 364 110 315 126 q 470 94 412 94 q 625 125 547 94 q 737 186 704 156 l 744 186 l 744 46 q 612 1 679 19 q 471 -17 545 -17 q 177 85 283 -17 q 72 374 72 187 q 173 669 72 560 q 439 779 274 779 q 676 689 593 779 q 759 435 759 599 l 759 366 m 635 464 q 584 619 634 564 q 433 674 534 674 q 270 613 331 674 q 202 464 210 553 l 635 464 "},"–":{"x_min":104,"x_max":779,"ha":883,"o":"m 779 387 l 104 387 l 104 496 l 779 496 l 779 387 "},"б":{"x_min":79,"x_max":778,"ha":853,"o":"m 682 646 q 753 531 729 598 q 778 372 778 463 q 676 91 778 203 q 426 -21 574 -21 q 291 3 353 -21 q 186 80 230 28 q 105 242 132 144 q 79 481 79 340 q 83 585 79 532 q 105 711 88 637 q 145 832 118 774 q 207 926 171 891 q 335 1006 255 976 q 546 1048 415 1036 q 646 1056 600 1053 q 729 1062 692 1059 l 729 944 q 640 938 684 941 q 553 931 597 935 q 397 903 467 924 q 294 849 327 882 q 241 755 259 813 q 217 645 223 697 q 328 707 268 682 q 457 732 389 732 q 579 710 521 732 q 682 646 638 689 m 648 365 q 587 552 648 490 q 429 615 527 615 q 316 596 370 615 q 214 546 262 577 q 212 506 213 529 q 211 465 211 484 q 230 273 211 347 q 285 157 250 200 q 353 105 316 120 q 431 90 389 90 q 590 163 533 90 q 648 365 648 237 "},"e":{"x_min":72,"x_max":759,"ha":827,"o":"m 759 366 l 202 366 q 222 244 202 296 q 280 159 243 192 q 364 110 315 126 q 470 94 412 94 q 625 125 547 94 q 737 186 704 156 l 744 186 l 744 46 q 612 1 679 19 q 471 -17 545 -17 q 177 85 283 -17 q 72 374 72 187 q 173 669 72 560 q 439 779 274 779 q 676 689 593 779 q 759 435 759 599 l 759 366 m 635 464 q 584 619 634 564 q 433 674 534 674 q 270 613 331 674 q 202 464 210 553 l 635 464 "},"у":{"x_min":41,"x_max":781,"ha":822,"o":"m 781 758 l 338 -279 l 201 -279 l 343 37 l 41 758 l 179 758 l 412 196 l 647 758 l 781 758 "},"J":{"x_min":30,"x_max":506,"ha":631,"o":"m 506 262 q 424 57 506 129 q 207 -14 343 -14 q 120 -8 175 -14 q 30 5 66 -2 l 30 132 l 37 132 q 106 112 65 122 q 189 102 146 102 q 288 116 251 102 q 343 156 325 130 q 366 223 361 184 q 372 314 372 262 l 372 903 l 158 903 l 158 1010 l 506 1010 l 506 262 "},"Ј":{"x_min":30,"x_max":506,"ha":631,"o":"m 506 262 q 424 57 506 129 q 207 -14 343 -14 q 120 -8 175 -14 q 30 5 66 -2 l 30 132 l 37 132 q 106 112 65 122 q 189 102 146 102 q 288 116 251 102 q 343 156 325 130 q 366 223 361 184 q 372 314 372 262 l 372 903 l 158 903 l 158 1010 l 506 1010 l 506 262 "},"∆":{"x_min":34,"x_max":975,"ha":1010,"o":"m 975 0 l 34 0 l 415 1010 l 593 1010 l 975 0 m 794 114 l 501 892 l 208 114 l 794 114 "},"‾":{"x_min":-33,"x_max":883,"ha":883,"o":"m 883 1132 l -33 1132 l -33 1213 l 883 1213 l 883 1132 "},"Ѓ":{"x_min":136,"x_max":788,"ha":787,"o":"m 788 891 l 270 891 l 270 0 l 136 0 l 136 1010 l 788 1010 l 788 891 m 690 1376 l 504 1122 l 404 1122 l 525 1376 l 690 1376 "},"≥":{"x_min":182,"x_max":965,"ha":1137,"o":"m 965 533 l 182 206 l 182 330 l 785 575 l 182 820 l 182 945 l 965 617 l 965 533 m 965 0 l 182 0 l 182 109 l 965 109 l 965 0 "},"ў":{"x_min":41,"x_max":781,"ha":822,"o":"m 781 758 l 338 -279 l 201 -279 l 343 37 l 41 758 l 179 758 l 412 196 l 647 758 l 781 758 m 653 1056 q 589 899 649 955 q 414 843 529 843 q 239 899 299 843 q 176 1056 179 955 l 292 1056 q 323 952 292 984 q 414 921 354 921 q 505 952 475 921 q 537 1056 536 983 l 653 1056 "},"^":{"x_min":126,"x_max":1010,"ha":1137,"o":"m 1010 464 l 875 464 l 567 889 l 259 463 l 126 463 l 525 1010 l 610 1010 l 1010 464 "},"ґ":{"x_min":125,"x_max":647,"ha":654,"o":"m 253 647 l 253 0 l 125 0 l 125 758 l 528 758 l 528 1008 l 647 1008 l 647 647 l 253 647 "},"D":{"x_min":136,"x_max":989,"ha":1070,"o":"m 989 503 q 928 254 989 366 q 769 80 868 142 q 615 18 700 37 q 390 0 529 0 l 136 0 l 136 1010 l 388 1010 q 623 988 536 1010 q 770 929 710 967 q 931 758 873 865 q 989 503 989 651 m 849 506 q 807 705 849 624 q 684 833 766 787 q 557 880 624 867 q 396 894 489 894 l 270 894 l 270 116 l 396 116 q 565 130 493 116 q 698 183 637 144 q 811 309 773 231 q 849 506 849 388 "},"∙":{"x_min":172,"x_max":334,"ha":505,"o":"m 334 347 l 172 347 l 172 539 l 334 539 l 334 347 "},"к":{"x_min":131,"x_max":809,"ha":822,"o":"m 809 0 l 641 0 l 327 348 l 259 348 l 259 0 l 131 0 l 131 758 l 259 758 l 259 431 q 360 453 321 431 q 425 526 398 476 q 444 565 435 544 q 462 605 453 586 q 550 720 497 682 q 702 758 603 758 l 761 758 l 761 648 l 704 648 q 621 625 651 648 q 566 545 590 602 q 509 450 539 481 q 445 402 479 418 l 809 0 "},"ц":{"x_min":125,"x_max":845,"ha":895,"o":"m 726 0 l 125 0 l 125 758 l 253 758 l 253 110 l 625 110 l 625 758 l 753 758 l 753 110 l 845 110 l 845 -182 l 726 -182 l 726 0 "},"Л":{"x_min":12,"x_max":884,"ha":1020,"o":"m 884 0 l 750 0 l 750 891 l 385 891 q 379 740 382 814 q 373 609 375 667 q 355 370 368 464 q 323 216 342 276 q 278 119 303 155 q 222 53 254 82 q 155 10 189 23 q 75 -2 121 -2 q 40 0 60 -2 q 12 0 20 0 l 12 130 l 21 130 q 38 128 28 129 q 58 128 48 128 q 104 135 83 128 q 141 158 126 142 q 212 317 189 206 q 244 632 234 427 q 251 808 247 698 q 258 1010 255 918 l 884 1010 l 884 0 "},"w":{"x_min":58,"x_max":1079,"ha":1137,"o":"m 1079 758 l 881 0 l 763 0 l 568 584 l 375 0 l 257 0 l 58 758 l 190 758 l 330 171 l 519 758 l 624 758 l 819 171 l 950 758 l 1079 758 "},"$":{"x_min":105,"x_max":787,"ha":883,"o":"m 787 257 q 704 82 787 152 q 490 0 622 13 l 490 -245 l 410 -245 l 410 -3 q 241 14 320 -2 q 105 57 162 30 l 105 192 l 115 192 q 162 164 128 182 q 226 134 195 146 q 309 110 261 121 q 410 97 356 99 l 410 391 q 359 401 382 396 q 317 412 336 406 q 158 496 206 440 q 110 634 110 552 q 189 803 110 734 q 410 884 268 873 l 410 1069 l 490 1069 l 490 886 q 630 869 558 884 q 751 835 702 854 l 751 702 l 741 702 q 635 757 690 733 q 490 788 580 781 l 490 495 q 534 485 510 491 q 575 476 557 480 q 731 402 676 455 q 787 257 787 349 m 410 506 l 410 787 q 287 747 337 781 q 238 651 238 713 q 274 558 238 590 q 410 506 311 527 m 659 239 q 619 333 659 303 q 490 379 579 362 l 490 98 q 615 139 571 106 q 659 239 659 173 "},"∫":{"x_min":94,"x_max":793,"ha":883,"o":"m 793 927 l 786 927 q 725 939 764 932 q 664 947 686 947 q 541 905 577 947 q 506 763 506 864 l 506 2 q 435 -211 506 -137 q 236 -286 364 -286 q 164 -282 201 -286 q 94 -271 127 -278 l 94 -151 l 100 -151 q 159 -163 123 -156 q 219 -171 196 -171 q 342 -129 306 -171 q 378 12 378 -88 l 378 773 q 448 987 378 912 q 647 1062 519 1062 q 721 1058 687 1062 q 793 1047 756 1054 l 793 927 "},"\\":{"x_min":47,"x_max":651,"ha":631,"o":"m 651 -206 l 533 -206 l 47 1055 l 166 1055 l 651 -206 "},"о":{"x_min":72,"x_max":771,"ha":843,"o":"m 771 378 q 676 86 771 193 q 421 -21 581 -21 q 166 86 261 -21 q 72 378 72 193 q 166 671 72 563 q 421 779 261 779 q 676 671 581 779 q 771 378 771 563 m 639 378 q 581 597 639 525 q 421 669 524 669 q 261 597 318 669 q 204 378 204 525 q 261 162 204 236 q 421 89 319 89 q 581 161 523 89 q 639 378 639 234 "},"Д":{"x_min":7,"x_max":976,"ha":1036,"o":"m 976 -229 l 848 -229 l 848 3 l 135 3 l 135 -229 l 7 -229 l 7 119 l 89 119 q 229 498 177 264 q 282 1010 282 731 l 880 1010 l 880 119 l 976 119 l 976 -229 m 746 119 l 746 894 l 407 894 q 347 450 397 651 q 219 119 298 248 l 746 119 "},"’":{"x_min":109,"x_max":386,"ha":373,"o":"m 386 1055 l 202 676 l 109 676 l 220 1055 l 386 1055 "},"ъ":{"x_min":7,"x_max":828,"ha":890,"o":"m 696 233 q 684 293 696 267 q 645 336 672 319 q 580 356 616 353 q 476 360 544 360 l 357 360 l 357 102 l 473 102 q 578 107 541 102 q 643 129 616 113 q 683 171 670 147 q 696 233 696 195 m 828 234 q 805 135 828 179 q 745 62 783 90 q 650 14 701 28 q 518 0 599 0 l 229 0 l 229 647 l 7 647 l 7 758 l 357 758 l 357 463 l 522 463 q 655 454 608 463 q 749 410 702 445 q 808 336 788 381 q 828 234 828 290 "},"-":{"x_min":104,"x_max":527,"ha":631,"o":"m 527 380 l 104 380 l 104 503 l 527 503 l 527 380 "},"ѕ":{"x_min":75,"x_max":667,"ha":724,"o":"m 667 218 q 581 48 667 114 q 346 -18 495 -18 q 192 2 262 -18 q 75 45 122 22 l 75 189 l 81 189 q 216 116 142 143 q 357 89 290 89 q 489 116 442 89 q 537 202 537 143 q 511 270 537 247 q 412 309 485 293 q 341 323 384 315 q 261 341 297 331 q 119 419 161 367 q 78 544 78 470 q 97 632 78 591 q 156 706 116 674 q 252 757 194 738 q 383 776 311 776 q 521 759 451 776 q 637 719 590 742 l 637 583 l 630 583 q 511 644 581 619 q 374 669 441 669 q 256 642 304 669 q 208 561 208 615 q 237 491 208 514 q 329 452 265 467 q 408 436 364 444 q 481 421 452 428 q 618 351 570 401 q 667 218 667 301 "},"Q":{"x_min":78,"x_max":1036,"ha":1093,"o":"m 1036 -246 q 955 -261 995 -257 q 874 -266 916 -266 q 685 -201 756 -266 q 608 -16 614 -136 q 576 -19 591 -18 q 546 -21 560 -21 q 353 14 440 -21 q 204 116 265 49 q 110 281 143 183 q 78 504 78 379 q 110 726 78 628 q 205 893 143 824 q 353 995 265 960 q 546 1031 442 1031 q 741 995 655 1031 q 888 893 828 959 q 983 727 950 826 q 1016 504 1016 629 q 940 192 1016 319 q 738 14 864 65 q 774 -104 740 -61 q 897 -147 808 -147 q 963 -138 925 -147 q 1017 -123 1001 -129 l 1036 -123 l 1036 -246 m 876 504 q 787 808 876 701 q 547 915 699 915 q 305 808 393 915 q 218 504 218 701 q 307 200 218 305 q 547 95 396 95 q 786 200 697 95 q 876 504 876 305 "},"Ш":{"x_min":135,"x_max":1295,"ha":1431,"o":"m 1295 0 l 135 0 l 135 1010 l 269 1010 l 269 116 l 648 116 l 648 1010 l 782 1010 l 782 116 l 1161 116 l 1161 1010 l 1295 1010 l 1295 0 "},"M":{"x_min":136,"x_max":1035,"ha":1171,"o":"m 1035 0 l 901 0 l 901 870 l 620 278 l 539 278 l 261 870 l 261 0 l 136 0 l 136 1010 l 318 1010 l 588 447 l 848 1010 l 1035 1010 l 1035 0 "},"ј":{"x_min":-42,"x_max":361,"ha":478,"o":"m 361 885 l 217 885 l 217 1017 l 361 1017 l 361 885 m 353 -17 q 285 -218 353 -150 q 103 -286 217 -286 q 32 -280 76 -286 q -42 -266 -12 -275 l -42 -145 l -35 -145 q 15 -161 -16 -152 q 78 -171 47 -171 q 156 -157 126 -171 q 201 -116 186 -143 q 220 -51 216 -89 q 225 41 225 -13 l 225 651 l 67 651 l 67 758 l 353 758 l 353 -17 "},"C":{"x_min":78,"x_max":916,"ha":970,"o":"m 916 73 q 848 43 878 57 q 769 13 818 28 q 679 -8 728 0 q 572 -18 631 -18 q 372 12 462 -18 q 216 109 282 43 q 114 273 151 173 q 78 503 78 372 q 113 727 78 628 q 215 893 148 825 q 370 993 279 958 q 573 1028 462 1028 q 735 1008 654 1028 q 916 939 816 988 l 916 780 l 905 780 q 740 881 822 849 q 564 913 658 913 q 426 888 487 913 q 317 811 365 863 q 244 682 270 760 q 218 503 218 605 q 246 320 218 397 q 321 196 275 244 q 432 122 368 146 q 565 98 495 98 q 747 131 662 98 q 906 231 832 164 l 916 231 l 916 73 "},"!":{"x_min":197,"x_max":349,"ha":547,"o":"m 349 1010 l 331 278 l 216 278 l 197 1010 l 349 1010 m 342 0 l 204 0 l 204 143 l 342 143 l 342 0 "},"―":{"x_min":138,"x_max":1251,"ha":1389,"o":"m 1251 387 l 138 387 l 138 496 l 1251 496 l 1251 387 "},"Й":{"x_min":136,"x_max":906,"ha":1042,"o":"m 906 0 l 772 0 l 772 809 l 272 0 l 136 0 l 136 1010 l 270 1010 l 270 212 l 763 1010 l 906 1010 l 906 0 m 783 1313 q 711 1143 779 1200 q 530 1086 643 1086 q 348 1143 416 1086 q 277 1313 280 1200 l 400 1313 q 433 1202 401 1236 q 530 1169 466 1169 q 626 1202 594 1169 q 660 1313 658 1235 l 783 1313 "},"{":{"x_min":117,"x_max":754,"ha":882,"o":"m 754 -266 l 652 -266 q 455 -198 531 -266 q 380 -3 380 -130 l 380 97 q 323 277 380 212 q 151 342 267 342 l 117 342 l 117 447 l 151 447 q 323 511 267 447 q 380 691 380 576 l 380 792 q 455 987 380 919 q 652 1055 531 1055 l 754 1055 l 754 961 l 676 961 q 542 918 584 961 q 501 780 501 875 l 501 662 q 448 503 501 567 q 303 402 396 439 l 303 386 q 448 285 396 349 q 501 126 501 221 l 501 8 q 542 -129 501 -86 q 676 -172 584 -172 l 754 -172 l 754 -266 "},"X":{"x_min":46,"x_max":906,"ha":952,"o":"m 906 1010 l 557 510 l 905 0 l 750 0 l 474 415 l 192 0 l 46 0 l 398 504 l 54 1010 l 208 1010 l 480 599 l 758 1010 l 906 1010 "},"#":{"x_min":132,"x_max":1004,"ha":1137,"o":"m 1004 632 l 778 632 l 715 377 l 925 377 l 925 285 l 691 285 l 621 0 l 533 0 l 603 285 l 422 285 l 351 0 l 264 0 l 334 285 l 132 285 l 132 377 l 358 377 l 421 632 l 211 632 l 211 724 l 444 724 l 516 1010 l 603 1010 l 532 724 l 714 724 l 785 1010 l 873 1010 l 801 724 l 1004 724 l 1004 632 m 692 633 l 507 633 l 443 375 l 628 375 l 692 633 "},"Б":{"x_min":136,"x_max":898,"ha":952,"o":"m 898 312 q 869 179 898 239 q 792 82 840 120 q 670 19 735 38 q 502 0 605 0 l 136 0 l 136 1010 l 812 1010 l 812 891 l 270 891 l 270 614 l 506 614 q 674 602 609 614 q 796 545 739 590 q 873 446 848 505 q 898 312 898 387 m 758 310 q 741 399 758 361 q 688 462 724 438 q 601 492 650 487 q 464 498 553 498 l 270 498 l 270 115 l 460 115 q 599 123 550 115 q 684 157 648 132 q 740 219 722 184 q 758 310 758 255 "},"г":{"x_min":125,"x_max":647,"ha":654,"o":"m 647 647 l 253 647 l 253 0 l 125 0 l 125 758 l 647 758 l 647 647 "},"Џ":{"x_min":136,"x_max":908,"ha":1044,"o":"m 459 0 l 136 0 l 136 1010 l 270 1010 l 270 116 l 774 116 l 774 1010 l 908 1010 l 908 0 l 586 0 l 586 -229 l 459 -229 l 459 0 "},")":{"x_min":100,"x_max":508,"ha":631,"o":"m 508 388 q 441 21 508 183 q 255 -279 375 -141 l 100 -279 l 100 -272 q 204 -158 152 -225 q 297 -7 257 -90 q 364 175 339 79 q 389 388 389 272 q 363 599 389 499 q 297 783 338 699 q 204 934 254 869 q 100 1048 154 998 l 100 1055 l 255 1055 q 441 754 375 917 q 508 388 508 592 "},"э":{"x_min":56,"x_max":688,"ha":760,"o":"m 584 681 q 660 562 633 633 q 688 393 688 491 q 582 94 688 205 q 300 -17 476 -17 q 166 0 231 -17 q 56 33 101 15 l 56 174 l 64 174 q 172 116 105 141 q 314 92 240 92 q 487 157 420 92 q 562 348 553 222 l 179 348 l 179 451 l 561 451 q 483 612 547 558 q 322 666 418 666 q 199 645 260 666 q 78 579 137 624 l 70 579 l 70 718 q 178 755 112 735 q 314 775 244 775 q 466 751 398 775 q 584 681 534 728 "},"х":{"x_min":41,"x_max":781,"ha":822,"o":"m 781 0 l 619 0 l 405 291 l 189 0 l 41 0 l 336 377 l 44 758 l 205 758 l 417 471 l 631 758 l 781 758 l 483 384 l 781 0 "},"}":{"x_min":128,"x_max":765,"ha":882,"o":"m 765 342 l 730 342 q 558 277 614 342 q 502 97 502 212 l 502 -3 q 426 -198 502 -130 q 229 -266 350 -266 l 128 -266 l 128 -172 l 205 -172 q 339 -129 297 -172 q 381 8 381 -86 l 381 126 q 433 285 381 221 q 578 386 485 349 l 578 402 q 433 503 485 439 q 381 662 381 567 l 381 780 q 339 918 381 875 q 205 961 297 961 l 128 961 l 128 1055 l 229 1055 q 426 987 350 1055 q 502 792 502 919 l 502 691 q 558 511 502 576 q 730 447 614 447 l 765 447 l 765 342 "},"‰":{"x_min":101,"x_max":2010,"ha":2113,"o":"m 599 729 q 534 503 599 577 q 350 430 470 430 q 164 503 227 430 q 101 729 101 577 q 165 955 101 881 q 350 1029 229 1029 q 535 954 472 1029 q 599 729 599 879 m 1068 1010 l 538 0 l 427 0 l 956 1010 l 1068 1010 m 1394 279 q 1329 53 1394 127 q 1144 -20 1265 -20 q 959 54 1022 -20 q 896 279 896 129 q 960 505 896 431 q 1144 579 1024 579 q 1330 505 1267 579 q 1394 279 1394 431 m 478 729 q 447 892 478 846 q 350 939 417 939 q 251 892 281 939 q 222 729 222 846 q 251 565 222 611 q 350 520 281 520 q 447 565 417 520 q 478 729 478 611 m 1273 279 q 1242 442 1273 396 q 1145 489 1212 489 q 1046 442 1076 489 q 1017 279 1017 396 q 1046 115 1017 161 q 1145 70 1076 70 q 1242 115 1212 70 q 1273 279 1273 161 m 2010 279 q 1945 53 2010 127 q 1760 -20 1881 -20 q 1575 54 1638 -20 q 1512 279 1512 129 q 1576 505 1512 431 q 1760 579 1640 579 q 1946 505 1883 579 q 2010 279 2010 431 m 1889 279 q 1858 442 1889 396 q 1761 489 1828 489 q 1662 442 1692 489 q 1633 279 1633 396 q 1662 115 1633 161 q 1761 70 1692 70 q 1858 115 1828 70 q 1889 279 1889 161 "},"ш":{"x_min":126,"x_max":1092,"ha":1217,"o":"m 1092 0 l 126 0 l 126 758 l 254 758 l 254 110 l 545 110 l 545 758 l 673 758 l 673 110 l 964 110 l 964 758 l 1092 758 l 1092 0 "},"Я":{"x_min":30,"x_max":845,"ha":981,"o":"m 845 0 l 711 0 l 711 402 l 493 402 l 191 0 l 30 0 l 354 422 q 196 529 252 456 q 141 722 141 601 q 173 855 141 799 q 258 949 205 911 q 370 996 306 982 q 512 1010 435 1010 l 845 1010 l 845 0 m 711 514 l 711 894 l 506 894 q 412 886 448 894 q 348 859 377 879 q 299 800 317 838 q 282 717 282 762 q 294 627 282 663 q 334 564 307 591 q 409 524 365 534 q 511 514 453 514 l 711 514 "},"Ч":{"x_min":96,"x_max":853,"ha":989,"o":"m 853 0 l 719 0 l 719 427 q 556 386 631 400 q 413 372 481 372 q 288 388 346 372 q 186 441 229 405 q 120 532 144 477 q 96 665 96 588 l 96 1010 l 230 1010 l 230 732 q 236 632 230 673 q 267 558 243 591 q 329 510 291 526 q 441 495 368 495 q 590 508 517 495 q 719 542 663 522 l 719 1010 l 853 1010 l 853 0 "},"a":{"x_min":71,"x_max":714,"ha":834,"o":"m 714 0 l 586 0 l 586 80 q 540 48 569 69 q 484 15 511 27 q 411 -10 452 0 q 314 -21 370 -21 q 141 46 212 -21 q 71 219 71 114 q 107 359 71 306 q 212 443 144 412 q 378 484 281 473 q 586 501 475 495 l 586 520 q 570 592 586 563 q 527 636 555 620 q 462 657 500 652 q 383 663 424 663 q 271 649 333 663 q 144 612 210 636 l 138 612 l 138 741 q 245 763 175 751 q 384 776 316 776 q 523 762 464 776 q 626 717 583 749 q 691 636 669 686 q 714 514 714 587 l 714 0 m 586 186 l 586 398 q 449 387 528 394 q 325 368 370 380 q 236 319 270 352 q 203 228 203 286 q 242 130 203 163 q 361 97 281 97 q 483 123 428 97 q 586 186 538 149 "},"—":{"x_min":104,"x_max":1285,"ha":1389,"o":"m 1285 387 l 104 387 l 104 496 l 1285 496 l 1285 387 "},"=":{"x_min":166,"x_max":970,"ha":1137,"o":"m 970 530 l 166 530 l 166 639 l 970 639 l 970 530 m 970 245 l 166 245 l 166 354 l 970 354 l 970 245 "},"N":{"x_min":136,"x_max":906,"ha":1039,"o":"m 906 0 l 740 0 l 261 903 l 261 0 l 136 0 l 136 1010 l 343 1010 l 781 185 l 781 1010 l 906 1010 l 906 0 "},"Ћ":{"x_min":-1,"x_max":1040,"ha":1136,"o":"m 425 0 l 291 0 l 291 891 l -1 891 l -1 1010 l 764 1010 l 764 891 l 425 891 l 425 573 q 572 611 489 594 q 726 629 656 629 q 852 612 794 629 q 951 559 910 595 q 1016 468 993 523 q 1040 335 1040 413 l 1040 0 l 906 0 l 906 268 q 898 366 906 318 q 870 442 891 413 q 807 490 848 473 q 698 507 766 507 q 560 494 626 507 q 425 458 494 481 l 425 0 "},"⁄":{"x_min":-69,"x_max":572,"ha":502,"o":"m 572 1010 l 42 0 l -69 0 l 460 1010 l 572 1010 "},"д":{"x_min":6,"x_max":813,"ha":863,"o":"m 813 -182 l 694 -182 l 694 2 l 125 2 l 125 -182 l 6 -182 l 6 109 l 88 109 q 206 411 167 239 q 245 758 245 582 l 721 758 l 721 109 l 813 109 l 813 -182 m 593 109 l 593 651 l 365 651 q 312 340 356 480 q 213 109 269 199 l 593 109 "},"2":{"x_min":109,"x_max":793,"ha":883,"o":"m 793 0 l 109 0 l 109 142 q 251 264 180 203 q 385 386 323 325 q 563 586 515 512 q 612 746 612 660 q 560 869 612 825 q 415 914 508 914 q 281 892 353 914 q 140 825 209 870 l 134 825 l 134 967 q 262 1011 182 991 q 418 1031 342 1031 q 661 956 573 1031 q 750 753 750 881 q 735 645 750 695 q 692 551 720 596 q 630 468 665 509 q 543 378 594 427 q 393 240 471 307 q 249 117 316 173 l 793 117 l 793 0 "},"М":{"x_min":136,"x_max":1035,"ha":1171,"o":"m 1035 0 l 901 0 l 901 870 l 620 278 l 539 278 l 261 870 l 261 0 l 136 0 l 136 1010 l 318 1010 l 588 447 l 848 1010 l 1035 1010 l 1035 0 "},"Z":{"x_min":85,"x_max":875,"ha":952,"o":"m 875 0 l 85 0 l 85 124 l 705 891 l 108 891 l 108 1010 l 860 1010 l 860 889 l 233 119 l 875 119 l 875 0 "},"ь":{"x_min":125,"x_max":731,"ha":793,"o":"m 599 233 q 587 293 599 267 q 548 336 575 319 q 483 356 519 353 q 379 360 447 360 l 253 360 l 253 102 l 376 102 q 481 107 444 102 q 546 129 518 113 q 586 171 573 147 q 599 233 599 195 m 731 234 q 708 135 731 179 q 648 62 686 90 q 553 14 603 28 q 421 0 502 0 l 125 0 l 125 758 l 253 758 l 253 463 l 425 463 q 558 454 511 463 q 652 410 605 445 q 711 336 691 381 q 731 234 731 290 "},"u":{"x_min":120,"x_max":754,"ha":879,"o":"m 754 0 l 626 0 l 626 84 q 502 6 561 33 q 372 -21 443 -21 q 186 51 252 -21 q 120 266 120 124 l 120 758 l 248 758 l 248 326 q 253 227 248 268 q 276 157 258 186 q 323 113 294 127 q 408 100 353 100 q 516 125 458 100 q 626 191 575 151 l 626 758 l 754 758 l 754 0 "},"k":{"x_min":131,"x_max":813,"ha":822,"o":"m 813 0 l 645 0 l 341 332 l 259 253 l 259 0 l 131 0 l 131 1055 l 259 1055 l 259 378 l 626 758 l 787 758 l 435 407 l 813 0 "},"З":{"x_min":55,"x_max":784,"ha":855,"o":"m 708 485 q 762 413 741 457 q 784 301 784 370 q 753 172 784 229 q 674 74 722 114 q 542 5 620 28 q 374 -18 464 -18 q 190 0 275 -18 q 55 39 105 19 l 55 190 l 65 190 q 216 124 132 149 q 376 99 300 99 q 482 113 425 99 q 574 155 539 127 q 627 223 610 185 q 644 307 644 260 q 623 395 644 361 q 569 450 603 429 q 485 479 534 470 q 376 489 436 489 l 241 489 l 241 604 l 362 604 q 550 647 479 604 q 621 771 621 690 q 603 836 621 808 q 553 880 585 864 q 485 903 523 896 q 396 911 448 911 q 299 900 343 911 q 214 876 254 890 q 148 847 182 865 q 98 821 114 829 l 90 821 l 90 969 q 224 1009 140 991 q 394 1028 308 1028 q 537 1014 477 1028 q 648 971 597 1001 q 729 892 701 939 q 757 785 757 846 q 701 639 757 699 q 561 561 646 580 l 561 551 q 636 529 597 545 q 708 485 676 513 "},"Ў":{"x_min":4,"x_max":851,"ha":855,"o":"m 851 1010 l 466 159 q 412 75 443 108 q 344 23 380 41 q 275 0 308 6 q 212 -5 242 -5 q 146 -2 185 -5 q 97 1 107 0 l 97 126 l 106 126 q 140 121 116 124 q 195 119 164 119 q 233 121 208 119 q 276 130 257 123 q 319 155 298 138 q 356 206 341 173 l 380 259 l 4 1010 l 152 1010 l 448 413 l 713 1010 l 851 1010 m 690 1313 q 618 1143 686 1200 q 436 1086 550 1086 q 254 1143 322 1086 q 183 1313 186 1200 l 306 1313 q 339 1202 307 1236 q 436 1169 372 1169 q 533 1202 501 1169 q 567 1313 565 1235 l 690 1313 "},"€":{"x_min":0,"x_max":831,"ha":883,"o":"m 831 42 q 695 -5 757 7 q 547 -18 632 -18 q 253 84 382 -18 q 90 363 124 186 l 0 363 l 29 443 l 80 443 q 78 473 79 457 q 78 503 78 489 q 78 539 78 521 q 80 573 79 556 l 0 573 l 29 653 l 92 653 q 258 927 132 827 q 549 1028 384 1028 q 709 1014 644 1028 q 831 969 774 1000 l 831 828 l 820 828 q 698 892 765 871 q 547 913 631 913 q 354 842 441 913 q 235 653 268 772 l 557 653 l 527 573 l 221 573 q 219 539 220 556 q 218 503 218 521 q 218 472 218 488 q 220 443 219 457 l 478 443 l 448 363 l 234 363 q 356 168 267 239 q 547 98 446 98 q 714 119 654 98 q 820 182 774 140 l 831 182 l 831 42 "},"в":{"x_min":125,"x_max":751,"ha":826,"o":"m 751 229 q 728 131 751 174 q 668 60 706 89 q 573 14 624 28 q 438 0 522 0 l 125 0 l 125 758 l 418 758 q 546 752 503 758 q 627 726 589 746 q 689 668 669 704 q 710 583 710 632 q 678 486 710 527 q 595 421 646 444 l 595 415 q 707 352 663 398 q 751 229 751 305 m 578 564 q 567 607 578 588 q 535 638 557 627 q 471 654 506 652 q 383 656 435 656 l 251 656 l 251 449 l 410 449 q 484 452 460 449 q 532 471 508 456 q 568 509 558 487 q 578 564 578 531 m 619 229 q 606 289 619 266 q 553 333 594 313 q 497 347 527 345 q 414 350 467 350 l 251 350 l 251 102 l 371 102 q 488 107 447 102 q 559 129 530 112 q 604 170 589 146 q 619 229 619 195 "},"С":{"x_min":78,"x_max":916,"ha":970,"o":"m 916 73 q 848 43 878 57 q 769 13 818 28 q 679 -8 728 0 q 572 -18 631 -18 q 372 12 462 -18 q 216 109 282 43 q 114 273 151 173 q 78 503 78 372 q 113 727 78 628 q 215 893 148 825 q 370 993 279 958 q 573 1028 462 1028 q 735 1008 654 1028 q 916 939 816 988 l 916 780 l 905 780 q 740 881 822 849 q 564 913 658 913 q 426 888 487 913 q 317 811 365 863 q 244 682 270 760 q 218 503 218 605 q 246 320 218 397 q 321 196 275 244 q 432 122 368 146 q 565 98 495 98 q 747 131 662 98 q 906 231 832 164 l 916 231 l 916 73 "},"Ω":{"x_min":72,"x_max":1065,"ha":1137,"o":"m 1065 0 l 655 0 l 655 263 q 745 320 700 290 q 820 388 789 351 q 871 479 852 428 q 890 607 890 531 q 805 829 890 743 q 568 915 721 915 q 331 829 415 915 q 247 607 247 743 q 266 479 247 533 q 318 387 286 425 q 392 319 349 349 q 482 263 435 290 l 482 0 l 72 0 l 72 118 l 368 118 l 368 202 q 180 365 254 261 q 107 607 107 469 q 232 913 107 796 q 568 1031 358 1031 q 904 913 778 1031 q 1030 607 1030 796 q 956 365 1030 469 q 769 202 882 261 l 769 118 l 1065 118 l 1065 0 "},"њ":{"x_min":125,"x_max":1208,"ha":1270,"o":"m 1076 233 q 1064 293 1076 267 q 1025 336 1052 319 q 960 356 996 353 q 856 360 924 360 l 737 360 l 737 102 l 853 102 q 958 107 921 102 q 1023 129 996 113 q 1063 171 1050 147 q 1076 233 1076 195 m 1208 234 q 1185 135 1208 179 q 1125 62 1163 90 q 1030 14 1081 28 q 898 0 979 0 l 609 0 l 609 358 l 253 358 l 253 0 l 125 0 l 125 758 l 253 758 l 253 463 l 609 463 l 609 758 l 737 758 l 737 463 l 902 463 q 1035 454 988 463 q 1129 410 1082 445 q 1188 336 1168 381 q 1208 234 1208 290 "},"s":{"x_min":75,"x_max":667,"ha":724,"o":"m 667 218 q 581 48 667 114 q 346 -18 495 -18 q 192 2 262 -18 q 75 45 122 22 l 75 189 l 81 189 q 216 116 142 143 q 357 89 290 89 q 489 116 442 89 q 537 202 537 143 q 511 270 537 247 q 412 309 485 293 q 341 323 384 315 q 261 341 297 331 q 119 419 161 367 q 78 544 78 470 q 97 632 78 591 q 156 706 116 674 q 252 757 194 738 q 383 776 311 776 q 521 759 451 776 q 637 719 590 742 l 637 583 l 630 583 q 511 644 581 619 q 374 669 441 669 q 256 642 304 669 q 208 561 208 615 q 237 491 208 514 q 329 452 265 467 q 408 436 364 444 q 481 421 452 428 q 618 351 570 401 q 667 218 667 301 "},"B":{"x_min":136,"x_max":898,"ha":952,"o":"m 898 310 q 869 177 898 235 q 792 82 841 120 q 667 19 735 38 q 494 0 599 0 l 136 0 l 136 1010 l 435 1010 q 600 1001 545 1010 q 706 967 655 993 q 786 893 761 938 q 812 783 812 847 q 775 661 812 711 q 677 580 738 610 l 677 574 q 838 484 779 553 q 898 310 898 416 m 672 765 q 659 827 672 802 q 620 867 647 852 q 542 890 588 886 q 430 895 497 895 l 270 895 l 270 604 l 443 604 q 544 610 506 604 q 613 637 581 616 q 658 689 645 657 q 672 765 672 721 m 758 305 q 739 402 758 366 q 673 463 721 438 q 594 485 640 480 q 481 491 547 491 l 270 491 l 270 115 l 447 115 q 592 124 536 115 q 684 157 648 133 q 740 218 722 184 q 758 305 758 252 "},"…":{"x_min":121,"x_max":1015,"ha":1137,"o":"m 1015 0 l 877 0 l 877 151 l 1015 151 l 1015 0 m 637 0 l 499 0 l 499 151 l 637 151 l 637 0 m 259 0 l 121 0 l 121 151 l 259 151 l 259 0 "},"В":{"x_min":136,"x_max":898,"ha":952,"o":"m 898 310 q 869 177 898 235 q 792 82 841 120 q 667 19 735 38 q 494 0 599 0 l 136 0 l 136 1010 l 435 1010 q 600 1001 545 1010 q 706 967 655 993 q 786 893 761 938 q 812 783 812 847 q 775 661 812 711 q 677 580 738 610 l 677 574 q 838 484 779 553 q 898 310 898 416 m 672 765 q 659 827 672 802 q 620 867 647 852 q 542 890 588 886 q 430 895 497 895 l 270 895 l 270 604 l 443 604 q 544 610 506 604 q 613 637 581 616 q 658 689 645 657 q 672 765 672 721 m 758 305 q 739 402 758 366 q 673 463 721 438 q 594 485 640 480 q 481 491 547 491 l 270 491 l 270 115 l 447 115 q 592 124 536 115 q 684 157 648 133 q 740 218 722 184 q 758 305 758 252 "},"І":{"x_min":93,"x_max":491,"ha":584,"o":"m 491 0 l 93 0 l 93 103 l 225 103 l 225 907 l 93 907 l 93 1010 l 491 1010 l 491 907 l 359 907 l 359 103 l 491 103 l 491 0 "},"?":{"x_min":109,"x_max":682,"ha":758,"o":"m 682 773 q 658 654 682 706 q 595 562 634 602 q 508 490 557 523 q 403 424 458 456 l 403 271 l 282 271 l 282 478 q 377 533 326 503 q 461 593 428 563 q 522 666 500 629 q 544 762 544 704 q 492 877 544 839 q 358 915 440 915 q 219 891 284 915 q 115 845 153 868 l 109 845 l 109 983 q 229 1016 156 1001 q 367 1031 302 1031 q 597 960 513 1031 q 682 773 682 889 m 414 0 l 276 0 l 276 143 l 414 143 l 414 0 "},"H":{"x_min":136,"x_max":908,"ha":1044,"o":"m 908 0 l 774 0 l 774 495 l 270 495 l 270 0 l 136 0 l 136 1010 l 270 1010 l 270 614 l 774 614 l 774 1010 l 908 1010 l 908 0 "},"c":{"x_min":72,"x_max":686,"ha":724,"o":"m 686 47 q 565 0 622 16 q 443 -17 507 -17 q 292 7 361 -17 q 175 79 224 31 q 99 203 126 128 q 72 377 72 277 q 173 669 72 563 q 443 775 275 775 q 571 756 508 775 q 686 711 633 738 l 686 570 l 679 570 q 558 639 620 615 q 437 664 496 664 q 266 591 329 664 q 204 377 204 518 q 265 167 204 240 q 437 94 326 94 q 516 104 476 94 q 588 130 556 114 q 640 160 616 144 q 679 188 664 176 l 686 188 l 686 47 "},"−":{"x_min":149,"x_max":987,"ha":1137,"o":"m 987 387 l 149 387 l 149 496 l 987 496 l 987 387 "},"≠":{"x_min":166,"x_max":970,"ha":1137,"o":"m 970 246 l 557 246 l 487 19 l 384 19 l 454 246 l 166 246 l 166 351 l 487 351 l 544 534 l 166 534 l 166 639 l 577 639 l 648 866 l 752 866 l 681 639 l 970 639 l 970 534 l 647 534 l 591 351 l 970 351 l 970 246 "},"‼":{"x_min":197,"x_max":670,"ha":867,"o":"m 349 1010 l 331 278 l 216 278 l 197 1010 l 349 1010 m 342 0 l 204 0 l 204 143 l 342 143 l 342 0 m 670 1010 l 652 278 l 537 278 l 518 1010 l 670 1010 m 663 0 l 525 0 l 525 143 l 663 143 l 663 0 "},"•":{"x_min":125,"x_max":632,"ha":758,"o":"m 632 449 q 557 270 632 344 q 378 196 482 196 q 199 270 273 196 q 125 449 125 344 q 199 627 125 553 q 378 702 273 702 q 557 627 482 702 q 632 449 632 553 "},"н":{"x_min":125,"x_max":760,"ha":885,"o":"m 760 0 l 632 0 l 632 341 l 253 341 l 253 0 l 125 0 l 125 758 l 253 758 l 253 451 l 632 451 l 632 758 l 760 758 l 760 0 "},"(":{"x_min":123,"x_max":531,"ha":631,"o":"m 531 -279 l 375 -279 q 189 21 255 -141 q 123 388 123 183 q 189 754 123 592 q 375 1055 255 917 l 531 1055 l 531 1048 q 426 934 476 998 q 333 783 376 869 q 267 599 292 699 q 242 388 242 499 q 266 175 242 272 q 333 -7 291 79 q 426 -158 374 -90 q 531 -272 478 -225 l 531 -279 "},"U":{"x_min":121,"x_max":896,"ha":1017,"o":"m 896 405 q 871 214 896 295 q 792 78 847 132 q 670 2 740 26 q 508 -21 601 -21 q 342 4 413 -21 q 224 78 272 29 q 145 212 169 133 q 121 405 121 291 l 121 1010 l 255 1010 l 255 399 q 266 269 255 317 q 303 183 277 222 q 384 117 333 139 q 508 95 436 95 q 631 117 580 95 q 713 183 682 139 q 750 272 739 222 q 762 395 762 322 l 762 1010 l 896 1010 l 896 405 "},"F":{"x_min":136,"x_max":780,"ha":798,"o":"m 780 891 l 270 891 l 270 606 l 708 606 l 708 487 l 270 487 l 270 0 l 136 0 l 136 1010 l 780 1010 l 780 891 "},"м":{"x_min":125,"x_max":842,"ha":967,"o":"m 842 0 l 716 0 l 716 598 l 526 209 l 431 209 l 244 598 l 244 0 l 125 0 l 125 758 l 278 758 l 485 333 l 685 758 l 842 758 l 842 0 "},"з":{"x_min":44,"x_max":652,"ha":728,"o":"m 652 212 q 622 104 652 149 q 546 33 593 60 q 445 -4 500 7 q 334 -17 389 -17 q 184 -2 255 -17 q 44 44 113 12 l 44 184 l 52 184 q 178 116 102 140 q 327 93 255 93 q 397 99 361 93 q 459 120 433 105 q 505 158 488 136 q 522 220 522 181 q 505 285 522 261 q 460 322 488 310 q 393 337 432 334 q 321 340 353 340 l 211 340 l 211 450 l 287 450 q 358 452 314 450 q 429 462 402 454 q 485 495 464 474 q 506 562 506 516 q 489 615 506 594 q 448 647 473 635 q 392 662 423 658 q 338 667 362 667 q 202 648 269 667 q 89 594 135 629 l 81 594 l 81 734 q 201 764 137 752 q 330 776 266 776 q 436 766 383 776 q 534 733 488 757 q 607 671 579 710 q 636 573 636 631 q 598 468 636 513 q 499 403 561 423 l 499 399 q 610 335 569 382 q 652 212 652 289 "},":":{"x_min":235,"x_max":397,"ha":631,"o":"m 397 565 l 235 565 l 235 758 l 397 758 l 397 565 m 397 0 l 235 0 l 235 193 l 397 193 l 397 0 "},"Ґ":{"x_min":136,"x_max":788,"ha":787,"o":"m 270 891 l 270 0 l 136 0 l 136 1010 l 663 1010 l 663 1288 l 788 1288 l 788 891 l 270 891 "},"і":{"x_min":119,"x_max":263,"ha":382,"o":"m 263 885 l 119 885 l 119 1017 l 263 1017 l 263 885 m 255 0 l 127 0 l 127 758 l 255 758 l 255 0 "},"*":{"x_min":113,"x_max":771,"ha":883,"o":"m 771 601 l 727 526 l 481 671 l 486 427 l 399 427 l 402 671 l 157 526 l 113 600 l 371 741 l 113 881 l 157 956 l 403 811 l 399 1055 l 486 1055 l 481 811 l 727 955 l 771 880 l 513 741 l 771 601 "},"†":{"x_min":127,"x_max":757,"ha":883,"o":"m 757 702 l 483 705 l 487 92 l 397 92 l 400 705 l 127 702 l 127 789 l 400 785 l 397 1055 l 487 1055 l 483 785 l 757 789 l 757 702 "},"Ќ":{"x_min":139,"x_max":947,"ha":962,"o":"m 947 0 l 774 0 l 364 461 l 273 461 l 273 0 l 139 0 l 139 1010 l 273 1010 l 273 557 q 338 563 307 557 q 395 586 368 569 q 449 631 422 602 q 496 702 475 660 q 516 748 505 720 q 540 806 528 776 q 650 964 587 919 q 835 1010 713 1010 l 889 1010 l 889 891 l 832 891 q 759 882 785 891 q 711 853 732 873 q 677 805 692 835 q 647 736 663 776 q 575 604 611 646 q 478 531 539 562 l 947 0 m 693 1376 l 507 1122 l 407 1122 l 528 1376 l 693 1376 "},"∕":{"x_min":-69,"x_max":572,"ha":502,"o":"m 572 1010 l 42 0 l -69 0 l 460 1010 l 572 1010 "},"₫":{"x_min":73,"x_max":865,"ha":865,"o":"m 865 859 l 740 859 l 740 0 l 612 0 l 612 79 q 501 6 559 34 q 367 -21 442 -21 q 153 81 233 -21 q 73 368 73 183 q 100 539 73 465 q 174 665 128 613 q 282 744 220 717 q 409 771 344 771 q 515 758 469 771 q 612 720 560 746 l 612 859 l 366 859 l 366 951 l 612 951 l 612 1055 l 740 1055 l 740 951 l 865 951 l 865 859 m 612 186 l 612 615 q 519 646 558 638 q 431 655 480 655 q 265 582 325 655 q 205 371 205 509 q 250 169 205 239 q 398 100 296 100 q 508 124 452 100 q 612 186 563 148 m 723 -218 l 150 -218 l 150 -128 l 723 -128 l 723 -218 "},"V":{"x_min":18,"x_max":932,"ha":950,"o":"m 932 1010 l 564 0 l 385 0 l 18 1010 l 160 1010 l 477 120 l 794 1010 l 932 1010 "},"У":{"x_min":4,"x_max":851,"ha":855,"o":"m 851 1010 l 466 159 q 412 75 443 108 q 344 23 380 41 q 275 0 308 6 q 212 -5 242 -5 q 146 -2 185 -5 q 97 1 107 0 l 97 126 l 106 126 q 140 121 116 124 q 195 119 164 119 q 233 121 208 119 q 276 130 257 123 q 319 155 298 138 q 356 206 341 173 l 380 259 l 4 1010 l 152 1010 l 448 413 l 713 1010 l 851 1010 "},"0":{"x_min":93,"x_max":791,"ha":883,"o":"m 791 505 q 705 106 791 233 q 442 -21 620 -21 q 176 107 260 -21 q 93 504 93 236 q 177 902 93 773 q 442 1031 262 1031 q 707 900 623 1031 q 791 505 791 769 m 612 197 q 644 326 636 252 q 653 505 653 401 q 644 684 653 608 q 611 813 636 760 q 547 892 588 866 q 442 919 506 919 q 336 892 378 919 q 270 812 295 866 q 239 681 247 762 q 231 504 231 600 q 238 327 231 398 q 270 199 245 255 q 333 118 292 146 q 442 91 374 91 q 547 117 505 91 q 612 197 589 143 "},"”":{"x_min":102,"x_max":651,"ha":638,"o":"m 651 1055 l 466 676 l 376 676 l 488 1055 l 651 1055 m 377 1055 l 192 676 l 102 676 l 214 1055 l 377 1055 "},"@":{"x_min":119,"x_max":1268,"ha":1389,"o":"m 1268 449 q 1240 266 1268 355 q 1162 106 1213 178 l 863 106 l 845 185 q 749 122 795 144 q 643 101 702 101 q 461 187 529 101 q 393 428 393 273 q 476 674 393 582 q 675 766 559 766 q 763 754 725 766 q 845 721 801 743 l 845 754 l 953 754 l 953 181 l 1118 181 q 1161 308 1146 231 q 1176 445 1176 384 q 1145 647 1176 556 q 1054 803 1114 738 q 906 904 994 869 q 706 939 818 939 q 508 899 598 939 q 354 793 418 860 q 251 634 288 727 q 215 438 215 542 q 250 233 215 326 q 349 75 285 141 q 507 -28 417 6 q 703 -63 597 -63 q 824 -55 762 -63 q 943 -32 886 -48 l 943 -128 q 820 -147 877 -142 q 702 -153 763 -153 q 468 -109 576 -153 q 283 10 361 -66 q 162 197 205 88 q 119 439 119 307 q 164 673 119 564 q 288 860 209 781 q 475 985 367 940 q 705 1031 582 1031 q 943 988 838 1031 q 1119 870 1047 946 q 1229 687 1191 794 q 1268 449 1268 580 m 844 276 l 844 629 q 767 657 801 648 q 694 666 733 666 q 557 604 607 666 q 508 430 508 543 q 547 262 508 319 q 670 206 586 206 q 761 227 715 206 q 844 276 806 248 "},"℅":{"x_min":101,"x_max":1394,"ha":1495,"o":"m 551 476 q 480 446 530 463 q 378 430 431 430 q 174 508 248 430 q 101 728 101 586 q 175 946 101 864 q 378 1029 250 1029 q 465 1017 422 1029 q 551 984 508 1006 l 551 867 l 541 867 q 461 917 500 900 q 384 935 422 935 q 267 884 310 935 q 224 728 224 834 q 265 575 224 626 q 384 524 307 524 q 475 546 433 524 q 541 592 516 568 l 551 592 l 551 476 m 1065 1010 l 536 0 l 424 0 l 952 1010 l 1065 1010 m 1394 279 q 1329 53 1394 127 q 1144 -20 1265 -20 q 959 54 1022 -20 q 896 279 896 129 q 960 505 896 431 q 1144 579 1024 579 q 1330 505 1267 579 q 1394 279 1394 431 m 1273 279 q 1242 442 1273 396 q 1145 489 1212 489 q 1046 442 1076 489 q 1017 279 1017 396 q 1046 115 1017 161 q 1145 70 1076 70 q 1242 115 1212 70 q 1273 279 1273 161 "},"i":{"x_min":119,"x_max":263,"ha":382,"o":"m 263 885 l 119 885 l 119 1017 l 263 1017 l 263 885 m 255 0 l 127 0 l 127 758 l 255 758 l 255 0 "},"ќ":{"x_min":131,"x_max":809,"ha":822,"o":"m 809 0 l 641 0 l 327 348 l 259 348 l 259 0 l 131 0 l 131 758 l 259 758 l 259 431 q 360 453 321 431 q 425 526 398 476 q 444 565 435 544 q 462 605 453 586 q 550 720 497 682 q 702 758 603 758 l 761 758 l 761 648 l 704 648 q 621 625 651 648 q 566 545 590 602 q 509 450 539 481 q 445 402 479 418 l 809 0 m 649 1130 l 463 876 l 363 876 l 484 1130 l 649 1130 "},"≤":{"x_min":172,"x_max":955,"ha":1137,"o":"m 955 206 l 172 533 l 172 617 l 955 945 l 955 820 l 351 575 l 955 330 l 955 206 m 955 0 l 172 0 l 172 109 l 955 109 l 955 0 "},"ё":{"x_min":72,"x_max":759,"ha":827,"o":"m 759 366 l 202 366 q 222 244 202 296 q 280 159 243 192 q 364 110 315 126 q 470 94 412 94 q 625 125 547 94 q 737 186 704 156 l 744 186 l 744 46 q 612 1 679 19 q 471 -17 545 -17 q 177 85 283 -17 q 72 374 72 187 q 173 669 72 560 q 439 779 274 779 q 676 689 593 779 q 759 435 759 599 l 759 366 m 635 464 q 584 619 634 564 q 433 674 534 674 q 270 613 331 674 q 202 464 210 553 l 635 464 m 643 884 l 509 884 l 509 1016 l 643 1016 l 643 884 m 363 884 l 229 884 l 229 1016 l 363 1016 l 363 884 "},"№":{"x_min":136,"x_max":1515,"ha":1628,"o":"m 868 0 l 701 0 l 258 903 l 258 0 l 136 0 l 136 1010 l 344 1010 l 746 185 l 746 1010 l 868 1010 l 868 0 m 1515 729 q 1450 503 1515 577 q 1266 430 1386 430 q 1080 503 1143 430 q 1017 729 1017 577 q 1081 955 1017 881 q 1266 1029 1145 1029 q 1451 954 1388 1029 q 1515 729 1515 879 m 1394 729 q 1364 892 1394 846 q 1266 939 1334 939 q 1167 892 1196 939 q 1138 729 1138 846 q 1167 565 1138 611 q 1266 520 1196 520 q 1364 565 1334 520 q 1394 729 1394 611 m 1114 248 l 1412 248 l 1412 141 l 1114 141 l 1114 248 "},"]":{"x_min":116,"x_max":469,"ha":631,"o":"m 469 -266 l 116 -266 l 116 -169 l 351 -169 l 351 958 l 116 958 l 116 1055 l 469 1055 l 469 -266 "},"А":{"x_min":18,"x_max":932,"ha":950,"o":"m 932 0 l 789 0 l 690 281 l 252 281 l 154 0 l 18 0 l 385 1010 l 564 1010 l 932 0 m 649 397 l 471 892 l 293 397 l 649 397 "},"m":{"x_min":125,"x_max":1231,"ha":1351,"o":"m 1231 0 l 1103 0 l 1103 431 q 1098 526 1103 480 q 1079 598 1094 571 q 1035 643 1064 628 q 951 658 1006 658 q 844 631 897 658 q 737 562 790 604 q 740 526 739 547 q 742 485 742 505 l 742 0 l 614 0 l 614 431 q 609 527 614 482 q 590 599 605 572 q 546 643 575 628 q 462 658 517 658 q 357 632 410 658 q 253 566 305 606 l 253 0 l 125 0 l 125 758 l 253 758 l 253 673 q 372 751 312 723 q 498 779 431 779 q 629 746 575 779 q 710 656 683 713 q 851 750 787 721 q 987 779 914 779 q 1171 703 1112 779 q 1231 491 1231 627 l 1231 0 "},"′":{"x_min":144,"x_max":438,"ha":502,"o":"m 438 1010 l 236 590 l 144 590 l 275 1010 l 438 1010 "},"Ы":{"x_min":136,"x_max":1142,"ha":1278,"o":"m 751 310 q 734 399 751 361 q 681 462 717 438 q 594 492 643 487 q 457 498 546 498 l 270 498 l 270 115 l 453 115 q 592 123 544 115 q 677 157 641 132 q 733 219 715 184 q 751 310 751 255 m 891 312 q 862 179 891 239 q 785 82 833 120 q 663 19 728 38 q 495 0 598 0 l 136 0 l 136 1010 l 270 1010 l 270 614 l 499 614 q 667 602 602 614 q 789 545 732 590 q 866 446 841 505 q 891 312 891 387 m 1142 0 l 1008 0 l 1008 1010 l 1142 1010 l 1142 0 "},"Е":{"x_min":136,"x_max":801,"ha":878,"o":"m 801 0 l 136 0 l 136 1010 l 801 1010 l 801 891 l 270 891 l 270 614 l 801 614 l 801 495 l 270 495 l 270 119 l 801 119 l 801 0 "},"8":{"x_min":83,"x_max":800,"ha":883,"o":"m 800 281 q 698 63 800 150 q 441 -23 596 -23 q 180 61 277 -23 q 83 278 83 146 q 131 431 83 362 q 269 539 180 499 l 269 543 q 148 638 187 586 q 110 767 110 689 q 203 957 110 881 q 441 1033 297 1033 q 682 960 592 1033 q 773 775 773 887 q 730 641 773 707 q 604 537 687 575 l 604 533 q 749 433 699 493 q 800 281 800 373 m 639 774 q 583 889 639 846 q 440 933 527 933 q 300 892 355 933 q 246 782 246 851 q 273 698 246 733 q 356 634 300 662 q 428 602 381 622 q 520 570 475 583 q 613 663 587 615 q 639 774 639 711 m 660 268 q 632 368 660 331 q 525 444 605 406 q 455 472 493 459 q 354 508 417 484 q 257 417 294 474 q 221 288 221 360 q 283 137 221 197 q 443 78 346 78 q 600 128 541 78 q 660 268 660 179 "},"Э":{"x_min":66,"x_max":897,"ha":974,"o":"m 761 897 q 861 736 826 832 q 897 508 897 640 q 861 294 897 392 q 758 126 825 196 q 596 18 689 54 q 393 -18 503 -18 q 211 0 297 -18 q 66 43 125 18 l 66 192 l 76 192 q 215 122 131 148 q 395 96 299 96 q 548 125 479 96 q 664 205 618 154 q 738 328 713 260 q 763 483 763 396 l 210 483 l 210 600 l 756 600 q 715 740 746 680 q 635 838 684 799 q 526 895 587 876 q 395 914 465 914 q 221 887 302 914 q 80 816 139 861 l 69 816 l 69 965 q 218 1009 132 991 q 394 1028 304 1028 q 603 995 511 1028 q 761 897 695 962 "},"R":{"x_min":136,"x_max":972,"ha":966,"o":"m 972 0 l 797 0 l 459 402 l 270 402 l 270 0 l 136 0 l 136 1010 l 418 1010 q 571 998 510 1010 q 681 955 632 986 q 767 868 736 921 q 798 735 798 816 q 743 552 798 626 q 591 441 688 479 l 972 0 m 658 725 q 642 802 658 768 q 592 858 627 835 q 522 886 562 878 q 428 894 482 894 l 270 894 l 270 514 l 405 514 q 517 525 469 514 q 598 566 564 536 q 643 631 628 595 q 658 725 658 668 "},"ю":{"x_min":125,"x_max":1093,"ha":1165,"o":"m 961 378 q 904 596 961 524 q 748 669 848 669 q 590 593 645 669 q 536 378 536 517 q 592 161 536 234 q 748 89 649 89 q 904 161 847 89 q 961 378 961 233 m 410 344 l 253 344 l 253 0 l 125 0 l 125 758 l 253 758 l 253 451 l 413 451 q 522 693 430 607 q 750 779 615 779 q 1000 671 907 779 q 1093 378 1093 564 q 1001 86 1093 194 q 750 -21 909 -21 q 509 76 599 -21 q 410 344 418 174 "},"o":{"x_min":72,"x_max":771,"ha":843,"o":"m 771 378 q 676 86 771 193 q 421 -21 581 -21 q 166 86 261 -21 q 72 378 72 193 q 166 671 72 563 q 421 779 261 779 q 676 671 581 779 q 771 378 771 563 m 639 378 q 581 597 639 525 q 421 669 524 669 q 261 597 318 669 q 204 378 204 525 q 261 162 204 236 q 421 89 319 89 q 581 161 523 89 q 639 378 639 234 "},"5":{"x_min":127,"x_max":785,"ha":883,"o":"m 785 320 q 759 185 785 250 q 688 77 733 121 q 572 4 639 29 q 415 -21 504 -21 q 256 -3 333 -21 q 127 37 179 13 l 127 181 l 136 181 q 266 120 192 145 q 413 96 341 96 q 506 109 461 96 q 586 157 551 123 q 631 226 616 186 q 647 321 647 267 q 629 409 647 373 q 579 467 611 445 q 493 503 543 492 q 380 514 442 514 q 265 506 320 514 q 170 490 210 498 l 170 1010 l 778 1010 l 778 891 l 300 891 l 300 622 q 359 626 329 625 q 412 628 390 628 q 557 614 495 628 q 670 564 619 600 q 755 468 725 527 q 785 320 785 409 "},"Ѕ":{"x_min":91,"x_max":870,"ha":950,"o":"m 870 288 q 842 171 870 229 q 765 74 815 114 q 638 6 711 30 q 464 -18 566 -18 q 268 2 355 -18 q 91 62 181 22 l 91 231 l 100 231 q 277 132 177 167 q 466 98 377 98 q 660 144 590 98 q 730 269 730 191 q 697 368 730 336 q 597 417 664 400 q 486 440 546 431 q 360 462 427 449 q 161 559 226 491 q 97 739 97 628 q 204 946 97 865 q 476 1028 311 1028 q 671 1007 582 1028 q 829 957 760 987 l 829 799 l 819 799 q 667 879 761 847 q 475 912 574 912 q 302 867 367 912 q 237 752 237 822 q 269 653 237 689 q 384 598 302 617 q 507 575 427 588 q 643 547 587 561 q 813 457 756 517 q 870 288 870 396 "},"п":{"x_min":125,"x_max":760,"ha":885,"o":"m 760 0 l 632 0 l 632 648 l 253 648 l 253 0 l 125 0 l 125 758 l 760 758 l 760 0 "},"7":{"x_min":104,"x_max":795,"ha":883,"o":"m 795 858 l 337 0 l 193 0 l 679 891 l 104 891 l 104 1010 l 795 1010 l 795 858 "},"K":{"x_min":139,"x_max":947,"ha":962,"o":"m 947 0 l 772 0 l 373 449 l 273 342 l 273 0 l 139 0 l 139 1010 l 273 1010 l 273 483 l 762 1010 l 926 1010 l 474 535 l 947 0 "},",":{"x_min":100,"x_max":390,"ha":505,"o":"m 390 193 l 198 -251 l 100 -251 l 217 193 l 390 193 "},"d":{"x_min":73,"x_max":740,"ha":865,"o":"m 740 0 l 612 0 l 612 79 q 497 5 557 31 q 367 -21 437 -21 q 152 83 232 -21 q 73 373 73 187 q 100 544 73 469 q 174 673 127 620 q 282 751 220 724 q 409 779 343 779 q 515 766 468 779 q 612 727 561 753 l 612 1055 l 740 1055 l 740 0 m 612 186 l 612 621 q 519 653 560 644 q 431 662 479 662 q 264 587 324 662 q 205 375 205 512 q 251 170 205 240 q 398 100 297 100 q 508 124 452 100 q 612 186 563 148 "},"E":{"x_min":136,"x_max":801,"ha":878,"o":"m 801 0 l 136 0 l 136 1010 l 801 1010 l 801 891 l 270 891 l 270 614 l 801 614 l 801 495 l 270 495 l 270 119 l 801 119 l 801 0 "},"Y":{"x_min":4,"x_max":850,"ha":855,"o":"m 850 1010 l 495 442 l 495 0 l 361 0 l 361 428 l 4 1010 l 153 1010 l 428 558 l 707 1010 l 850 1010 "},"\"":{"x_min":114,"x_max":524,"ha":638,"o":"m 524 1055 l 494 662 l 405 662 l 376 1055 l 524 1055 m 262 1055 l 232 662 l 143 662 l 114 1055 l 262 1055 "},"‹":{"x_min":126,"x_max":499,"ha":631,"o":"m 499 117 l 126 412 l 126 473 l 499 768 l 499 633 l 247 442 l 499 251 l 499 117 "},"Є":{"x_min":78,"x_max":907,"ha":973,"o":"m 907 44 q 759 0 839 18 q 581 -18 679 -18 q 373 17 466 -18 q 215 119 280 52 q 113 284 149 186 q 78 506 78 381 q 113 721 78 624 q 215 888 149 819 q 373 991 280 954 q 580 1028 466 1028 q 759 1010 675 1028 q 907 966 842 992 l 907 815 l 896 815 q 758 886 843 858 q 578 914 674 914 q 445 894 504 914 q 338 834 386 874 q 260 735 290 794 q 220 600 230 677 l 777 600 l 777 483 l 214 483 q 243 315 214 388 q 321 194 273 241 q 438 120 372 145 q 580 96 504 96 q 758 121 674 96 q 896 192 841 146 l 907 192 l 907 44 "},"″":{"x_min":144,"x_max":710,"ha":774,"o":"m 438 1010 l 236 590 l 144 590 l 275 1010 l 438 1010 m 710 1010 l 508 590 l 416 590 l 547 1010 l 710 1010 "},"„":{"x_min":-7,"x_max":542,"ha":638,"o":"m 542 192 l 357 -187 l 267 -187 l 379 192 l 542 192 m 268 192 l 83 -187 l -7 -187 l 105 192 l 268 192 "},"ч":{"x_min":96,"x_max":716,"ha":841,"o":"m 716 0 l 588 0 l 588 291 q 469 260 526 272 q 347 249 413 249 q 160 309 224 249 q 96 482 96 369 l 96 758 l 224 758 l 224 547 q 229 469 224 503 q 252 410 234 435 q 301 372 270 385 q 390 360 333 360 q 492 369 437 360 q 588 390 547 378 l 588 758 l 716 758 l 716 0 "},"|":{"x_min":256,"x_max":374,"ha":631,"o":"m 374 -266 l 256 -266 l 256 1055 l 374 1055 l 374 -266 "},"џ":{"x_min":125,"x_max":760,"ha":885,"o":"m 760 0 l 503 0 l 503 -182 l 384 -182 l 384 0 l 125 0 l 125 758 l 253 758 l 253 109 l 632 109 l 632 758 l 760 758 l 760 0 "},"љ":{"x_min":20,"x_max":1208,"ha":1270,"o":"m 1063 171 q 1076 233 1076 195 q 1064 293 1076 267 q 1025 336 1052 319 q 960 356 996 353 q 856 360 924 360 l 737 360 l 737 102 l 853 102 q 958 107 921 102 q 1023 129 996 113 q 1063 171 1050 147 m 1208 234 q 1185 135 1208 179 q 1125 62 1163 90 q 1030 14 1081 28 q 898 0 979 0 l 609 0 l 609 651 l 326 651 q 321 542 323 594 q 317 448 319 490 q 302 267 313 334 q 273 155 291 199 q 237 86 257 112 q 194 39 217 60 q 143 9 171 19 q 82 -1 115 -1 q 48 0 70 -1 q 20 0 26 0 l 20 111 l 26 111 q 42 110 32 111 q 59 110 52 110 q 92 114 75 110 q 122 132 110 119 q 177 247 156 166 q 205 480 198 327 q 210 612 208 536 q 215 758 212 688 l 737 758 l 737 463 l 902 463 q 1035 454 988 463 q 1129 410 1082 445 q 1188 336 1168 381 q 1208 234 1208 290 "},"И":{"x_min":136,"x_max":906,"ha":1042,"o":"m 906 0 l 772 0 l 772 809 l 272 0 l 136 0 l 136 1010 l 270 1010 l 270 212 l 763 1010 l 906 1010 l 906 0 "},"й":{"x_min":125,"x_max":764,"ha":889,"o":"m 764 0 l 638 0 l 638 569 l 240 0 l 125 0 l 125 758 l 251 758 l 251 196 l 644 758 l 764 758 l 764 0 m 691 1056 q 627 899 687 955 q 453 843 567 843 q 278 899 338 843 q 215 1056 218 955 l 331 1056 q 362 952 331 984 q 453 921 393 921 q 543 952 513 921 q 575 1056 574 983 l 691 1056 "},"b":{"x_min":125,"x_max":792,"ha":865,"o":"m 792 384 q 765 213 792 289 q 693 86 738 137 q 587 5 644 32 q 460 -21 529 -21 q 347 -5 396 -21 q 253 35 299 9 l 244 0 l 125 0 l 125 1055 l 253 1055 l 253 678 q 366 750 306 722 q 502 779 427 779 q 714 675 636 779 q 792 384 792 572 m 660 381 q 615 587 660 517 q 471 658 570 658 q 358 633 415 658 q 253 571 301 609 l 253 137 q 346 103 307 113 q 434 94 385 94 q 600 163 540 94 q 660 381 660 233 "},"q":{"x_min":73,"x_max":740,"ha":865,"o":"m 740 -279 l 612 -279 l 612 85 q 494 9 553 34 q 368 -15 436 -15 q 153 89 233 -15 q 73 376 73 193 q 101 549 73 474 q 175 675 129 624 q 280 751 220 724 q 407 779 340 779 q 516 765 468 779 q 612 725 563 751 l 620 758 l 740 758 l 740 -279 m 612 192 l 612 621 q 518 654 559 645 q 430 664 477 664 q 262 588 320 664 q 205 382 205 513 q 251 177 205 249 q 397 106 297 106 q 508 130 452 106 q 612 192 563 154 "},"Љ":{"x_min":12,"x_max":1499,"ha":1553,"o":"m 1359 310 q 1342 399 1359 361 q 1288 462 1325 438 q 1202 492 1251 487 q 1064 498 1153 498 l 877 498 l 877 115 l 1061 115 q 1200 123 1151 115 q 1285 157 1248 132 q 1341 219 1323 184 q 1359 310 1359 255 m 1499 312 q 1470 179 1499 239 q 1393 82 1441 120 q 1270 19 1336 38 q 1102 0 1205 0 l 743 0 l 743 891 l 385 891 q 379 740 382 814 q 373 609 375 667 q 355 370 368 464 q 323 216 342 276 q 278 119 303 155 q 222 53 254 82 q 155 10 189 23 q 75 -2 121 -2 q 40 0 60 -2 q 12 0 20 0 l 12 130 l 21 130 q 38 128 28 129 q 58 128 48 128 q 104 135 83 128 q 141 158 126 142 q 212 317 189 206 q 244 632 234 427 q 251 808 247 698 q 258 1010 255 918 l 877 1010 l 877 614 l 1106 614 q 1274 602 1209 614 q 1397 545 1340 590 q 1474 446 1449 505 q 1499 312 1499 387 "},"р":{"x_min":125,"x_max":792,"ha":865,"o":"m 792 388 q 765 219 792 295 q 690 90 739 143 q 585 12 646 39 q 457 -15 524 -15 q 350 -2 398 -15 q 253 37 302 10 l 253 -279 l 125 -279 l 125 758 l 253 758 l 253 678 q 367 750 303 721 q 502 779 430 779 q 715 675 639 779 q 792 388 792 572 m 660 385 q 613 590 660 522 q 469 658 566 658 q 359 634 414 658 q 253 571 303 610 l 253 142 q 346 108 307 117 q 434 100 385 100 q 600 171 540 100 q 660 385 660 243 "},"т":{"x_min":7,"x_max":683,"ha":689,"o":"m 683 647 l 409 647 l 409 0 l 281 0 l 281 647 l 7 647 l 7 758 l 683 758 l 683 647 "},"П":{"x_min":136,"x_max":908,"ha":1044,"o":"m 908 0 l 774 0 l 774 891 l 270 891 l 270 0 l 136 0 l 136 1010 l 908 1010 l 908 0 "},"z":{"x_min":63,"x_max":675,"ha":730,"o":"m 675 0 l 63 0 l 63 93 l 504 651 l 73 651 l 73 758 l 663 758 l 663 667 l 219 107 l 675 107 l 675 0 "},"™":{"x_min":116,"x_max":1205,"ha":1356,"o":"m 1205 533 l 1121 533 l 1121 951 l 1107 951 l 946 645 l 893 645 l 730 955 l 714 955 l 714 533 l 631 533 l 631 1010 l 792 1010 l 921 751 l 1051 1010 l 1205 1010 l 1205 533 m 512 931 l 357 931 l 357 533 l 271 533 l 271 931 l 116 931 l 116 1010 l 512 1010 l 512 931 "},"Ж":{"x_min":22,"x_max":1331,"ha":1352,"o":"m 1331 0 l 1166 0 l 811 462 l 740 462 l 740 0 l 606 0 l 606 462 l 532 462 l 177 0 l 22 0 l 424 519 q 329 611 364 558 q 272 736 293 664 q 246 807 259 777 q 215 856 234 836 q 168 882 196 874 q 99 891 140 891 l 59 891 l 59 1010 l 107 1010 q 281 966 220 1010 q 383 806 341 923 q 400 756 390 786 q 421 702 410 726 q 499 596 450 630 q 606 556 547 561 l 606 1010 l 740 1010 l 740 555 q 852 592 802 559 q 933 702 901 626 q 955 760 945 731 q 971 806 965 789 q 1073 966 1012 923 q 1246 1010 1134 1010 l 1294 1010 l 1294 891 l 1253 891 q 1182 883 1208 891 q 1137 856 1157 875 q 1104 806 1117 837 q 1079 736 1092 775 q 1008 600 1050 645 q 923 527 965 554 l 1331 0 "},"и":{"x_min":125,"x_max":764,"ha":889,"o":"m 764 0 l 638 0 l 638 569 l 240 0 l 125 0 l 125 758 l 251 758 l 251 196 l 644 758 l 764 758 l 764 0 "},"~":{"x_min":127,"x_max":1010,"ha":1137,"o":"m 1010 628 q 994 496 1008 561 q 950 380 980 431 q 875 298 919 328 q 763 269 830 269 q 649 295 699 269 q 543 391 600 322 q 442 497 474 475 q 377 519 411 519 q 280 459 313 519 q 240 268 246 400 l 127 268 q 142 400 128 336 q 186 516 156 464 q 262 597 215 566 q 373 628 308 628 q 486 601 437 628 q 594 505 536 575 q 683 408 648 439 q 759 378 717 378 q 862 446 829 378 q 897 628 894 514 l 1010 628 "},"Н":{"x_min":136,"x_max":908,"ha":1044,"o":"m 908 0 l 774 0 l 774 495 l 270 495 l 270 0 l 136 0 l 136 1010 l 270 1010 l 270 614 l 774 614 l 774 1010 l 908 1010 l 908 0 "},"ф":{"x_min":75,"x_max":1093,"ha":1168,"o":"m 1093 398 q 1067 220 1093 297 q 998 92 1041 142 q 901 15 956 41 q 786 -11 846 -11 q 707 4 740 -11 q 647 33 673 20 l 647 -279 l 521 -279 l 521 33 q 452 0 479 12 q 368 -11 425 -11 q 156 91 237 -11 q 75 376 75 193 q 101 547 75 472 q 170 673 127 622 q 268 748 212 722 q 379 775 324 775 q 454 762 420 775 q 521 729 487 749 l 521 1055 l 647 1055 l 647 729 q 720 761 678 747 q 805 775 762 775 q 1016 673 939 775 q 1093 398 1093 572 m 961 384 q 914 589 961 514 q 776 665 868 665 q 714 658 739 665 q 647 635 689 652 l 647 129 q 700 106 678 114 q 760 98 721 98 q 908 171 856 98 q 961 384 961 245 m 521 129 l 521 635 q 467 656 494 648 q 407 665 440 665 q 261 595 315 665 q 207 382 207 525 q 255 174 207 250 q 395 98 303 98 q 461 107 431 98 q 521 129 492 117 "},"₧":{"x_min":136,"x_max":1526,"ha":1616,"o":"m 1526 218 q 1449 47 1526 113 q 1243 -18 1372 -18 q 1108 2 1171 -18 q 1004 45 1045 22 l 1004 189 l 1010 189 q 1049 159 1025 175 q 1104 127 1074 142 q 1173 99 1140 109 q 1253 89 1206 89 q 1363 114 1322 89 q 1405 202 1405 140 q 1382 273 1405 250 q 1301 311 1359 296 q 1239 325 1273 319 q 1169 342 1206 332 q 1046 419 1083 368 q 1009 544 1009 469 q 1014 592 1009 569 q 1031 641 1019 615 l 882 641 l 882 0 l 759 0 l 759 641 l 675 641 q 647 553 667 594 q 595 480 627 512 q 474 402 543 428 q 296 376 404 376 l 264 376 l 264 0 l 136 0 l 136 1010 l 301 1010 q 453 994 392 1010 q 563 946 514 979 q 641 864 611 914 q 678 747 671 815 l 759 747 l 759 896 l 882 896 l 882 747 l 1141 747 q 1204 767 1165 759 q 1277 775 1243 775 q 1396 758 1334 775 q 1500 718 1457 742 l 1500 582 l 1493 582 q 1390 643 1450 618 q 1268 668 1329 668 q 1168 641 1207 668 q 1130 561 1130 614 q 1150 489 1130 513 q 1228 449 1170 464 q 1293 433 1259 441 q 1358 416 1327 424 q 1481 348 1436 396 q 1526 218 1526 300 m 548 700 q 529 793 548 753 q 474 857 511 832 q 398 888 442 878 q 295 898 353 898 l 264 898 l 264 487 l 275 487 q 407 502 356 487 q 489 549 458 517 q 534 619 521 582 q 548 700 548 656 "},"л":{"x_min":20,"x_max":737,"ha":862,"o":"m 737 0 l 609 0 l 609 651 l 326 651 q 321 542 323 594 q 317 448 319 490 q 302 267 313 334 q 273 155 291 199 q 237 86 257 112 q 194 39 217 60 q 143 9 171 19 q 82 -1 115 -1 q 48 0 70 -1 q 20 0 26 0 l 20 111 l 26 111 q 42 110 32 111 q 59 110 52 110 q 92 114 75 110 q 122 132 110 119 q 177 247 156 166 q 205 480 198 327 q 210 612 208 536 q 215 758 212 688 l 737 758 l 737 0 "},"[":{"x_min":162,"x_max":515,"ha":631,"o":"m 515 -266 l 162 -266 l 162 1055 l 515 1055 l 515 958 l 280 958 l 280 -169 l 515 -169 l 515 -266 "},"Щ":{"x_min":135,"x_max":1391,"ha":1451,"o":"m 1263 0 l 135 0 l 135 1010 l 269 1010 l 269 116 l 648 116 l 648 1010 l 782 1010 l 782 116 l 1161 116 l 1161 1010 l 1295 1010 l 1295 116 l 1391 116 l 1391 -229 l 1263 -229 l 1263 0 "},"L":{"x_min":136,"x_max":774,"ha":773,"o":"m 774 0 l 136 0 l 136 1010 l 270 1010 l 270 119 l 774 119 l 774 0 "},"К":{"x_min":139,"x_max":947,"ha":962,"o":"m 947 0 l 774 0 l 364 461 l 273 461 l 273 0 l 139 0 l 139 1010 l 273 1010 l 273 557 q 338 563 307 557 q 395 586 368 569 q 449 631 422 602 q 496 702 475 660 q 516 748 505 720 q 540 806 528 776 q 650 964 587 919 q 835 1010 713 1010 l 889 1010 l 889 891 l 832 891 q 759 882 785 891 q 711 853 732 873 q 677 805 692 835 q 647 736 663 776 q 575 604 611 646 q 478 531 539 562 l 947 0 "}," ":{"x_min":0,"x_max":0,"ha":488},"∑":{"x_min":127,"x_max":929,"ha":1010,"o":"m 929 -128 l 127 -128 l 127 1 l 583 454 l 134 883 l 134 1010 l 903 1010 l 903 891 l 298 891 l 738 483 l 738 434 l 285 -9 l 929 -9 l 929 -128 "},"%":{"x_min":101,"x_max":1394,"ha":1495,"o":"m 599 729 q 534 503 599 577 q 350 430 470 430 q 164 503 227 430 q 101 729 101 577 q 165 955 101 881 q 350 1029 229 1029 q 535 954 472 1029 q 599 729 599 879 m 1068 1010 l 538 0 l 427 0 l 956 1010 l 1068 1010 m 1394 279 q 1329 53 1394 127 q 1144 -20 1265 -20 q 959 54 1022 -20 q 896 279 896 129 q 960 505 896 431 q 1144 579 1024 579 q 1330 505 1267 579 q 1394 279 1394 431 m 478 729 q 447 892 478 846 q 350 939 417 939 q 251 892 281 939 q 222 729 222 846 q 251 565 222 611 q 350 520 281 520 q 447 565 417 520 q 478 729 478 611 m 1273 279 q 1242 442 1273 396 q 1145 489 1212 489 q 1046 442 1076 489 q 1017 279 1017 396 q 1046 115 1017 161 q 1145 70 1076 70 q 1242 115 1212 70 q 1273 279 1273 161 "},"P":{"x_min":136,"x_max":797,"ha":838,"o":"m 797 704 q 773 579 797 637 q 708 480 750 522 q 584 402 655 428 q 404 376 513 376 l 270 376 l 270 0 l 136 0 l 136 1010 l 410 1010 q 564 994 501 1010 q 676 946 627 979 q 765 850 733 908 q 797 704 797 792 m 657 700 q 638 791 657 753 q 583 854 620 830 q 508 884 550 875 q 403 894 466 894 l 270 894 l 270 491 l 383 491 q 515 505 464 491 q 598 551 566 520 q 643 620 630 584 q 657 700 657 656 "},"∏":{"x_min":97,"x_max":1040,"ha":1137,"o":"m 1040 892 l 904 892 l 904 -131 l 770 -131 l 770 892 l 367 892 l 367 -131 l 233 -131 l 233 892 l 97 892 l 97 1010 l 1040 1010 l 1040 892 "},"_":{"x_min":-3,"x_max":886,"ha":883,"o":"m 886 -203 l -3 -203 l -3 -122 l 886 -122 l 886 -203 "},"+":{"x_min":142,"x_max":995,"ha":1137,"o":"m 995 387 l 625 387 l 625 17 l 512 17 l 512 387 l 142 387 l 142 496 l 512 496 l 512 866 l 625 866 l 625 496 l 995 496 l 995 387 "},"‚":{"x_min":-7,"x_max":270,"ha":373,"o":"m 270 192 l 86 -187 l -7 -187 l 104 192 l 270 192 "},"₣":{"x_min":41,"x_max":773,"ha":883,"o":"m 773 894 l 294 894 l 294 604 l 735 604 l 735 488 l 294 488 l 294 303 l 518 303 l 518 209 l 294 209 l 294 0 l 164 0 l 164 209 l 41 209 l 41 303 l 164 303 l 164 1010 l 773 1010 l 773 894 "},"ѓ":{"x_min":125,"x_max":647,"ha":654,"o":"m 647 647 l 253 647 l 253 0 l 125 0 l 125 758 l 647 758 l 647 647 m 583 1130 l 397 876 l 297 876 l 418 1130 l 583 1130 "},"ы":{"x_min":125,"x_max":978,"ha":1103,"o":"m 591 233 q 579 293 591 267 q 540 336 567 319 q 475 356 511 353 q 371 360 439 360 l 253 360 l 253 102 l 369 102 q 474 107 436 102 q 538 129 511 113 q 578 171 565 147 q 591 233 591 195 m 723 234 q 700 135 723 179 q 640 62 678 90 q 545 14 596 28 q 414 0 494 0 l 125 0 l 125 758 l 253 758 l 253 463 l 418 463 q 550 454 503 463 q 644 410 597 445 q 703 336 683 381 q 723 234 723 290 m 850 758 l 978 758 l 978 0 l 850 0 l 850 758 "},"'":{"x_min":111,"x_max":262,"ha":373,"o":"m 262 1055 l 232 662 l 140 662 l 111 1055 l 262 1055 "},"ї":{"x_min":4,"x_max":378,"ha":382,"o":"m 378 884 l 250 884 l 250 1016 l 378 1016 l 378 884 m 132 884 l 4 884 l 4 1016 l 132 1016 l 132 884 m 255 0 l 127 0 l 127 758 l 255 758 l 255 0 "},"Р":{"x_min":136,"x_max":797,"ha":838,"o":"m 797 704 q 773 579 797 637 q 708 480 750 522 q 584 402 655 428 q 404 376 513 376 l 270 376 l 270 0 l 136 0 l 136 1010 l 410 1010 q 564 994 501 1010 q 676 946 627 979 q 765 850 733 908 q 797 704 797 792 m 657 700 q 638 791 657 753 q 583 854 620 830 q 508 884 550 875 q 403 894 466 894 l 270 894 l 270 491 l 383 491 q 515 505 464 491 q 598 551 566 520 q 643 620 630 584 q 657 700 657 656 "},"щ":{"x_min":126,"x_max":1184,"ha":1233,"o":"m 1065 0 l 126 0 l 126 758 l 254 758 l 254 110 l 545 110 l 545 758 l 673 758 l 673 110 l 964 110 l 964 758 l 1092 758 l 1092 110 l 1184 110 l 1184 -182 l 1065 -182 l 1065 0 "},"T":{"x_min":0,"x_max":856,"ha":856,"o":"m 856 891 l 495 891 l 495 0 l 361 0 l 361 891 l 0 891 l 0 1010 l 856 1010 l 856 891 "},"Њ":{"x_min":136,"x_max":1478,"ha":1532,"o":"m 1338 310 q 1321 399 1338 361 q 1268 462 1304 438 q 1181 492 1230 487 q 1044 498 1133 498 l 857 498 l 857 115 l 1040 115 q 1179 123 1131 115 q 1264 157 1228 132 q 1320 219 1302 184 q 1338 310 1338 255 m 1478 312 q 1449 179 1478 239 q 1372 82 1420 120 q 1250 19 1315 38 q 1082 0 1185 0 l 723 0 l 723 498 l 270 498 l 270 0 l 136 0 l 136 1010 l 270 1010 l 270 614 l 723 614 l 723 1010 l 857 1010 l 857 614 l 1086 614 q 1254 602 1189 614 q 1376 545 1319 590 q 1453 446 1428 505 q 1478 312 1478 387 "},"℮":{"x_min":120,"x_max":880,"ha":997,"o":"m 880 429 l 254 429 q 276 278 254 339 q 339 174 298 216 q 434 114 378 134 q 554 94 489 94 q 717 123 637 94 q 857 201 796 152 l 866 201 l 866 56 q 712 1 777 20 q 561 -17 647 -17 q 235 100 350 -17 q 120 435 120 218 q 229 775 120 648 q 525 902 338 902 q 789 797 698 902 q 880 504 880 693 l 880 429 m 751 533 q 736 639 749 590 q 696 723 723 688 q 623 777 668 757 q 516 797 577 797 q 335 725 408 797 q 254 533 263 653 l 751 533 "},"є":{"x_min":72,"x_max":702,"ha":760,"o":"m 702 32 q 595 -3 649 10 q 457 -17 541 -17 q 301 7 372 -17 q 179 79 230 31 q 99 204 127 129 q 72 377 72 278 q 173 664 72 554 q 457 775 274 775 q 591 756 528 775 q 702 716 655 738 l 702 579 l 693 579 q 584 639 650 612 q 450 666 519 666 q 286 613 353 666 q 202 451 218 560 l 590 451 l 590 348 l 200 348 q 273 159 206 227 q 450 92 339 92 q 587 115 523 92 q 693 172 651 138 l 702 172 l 702 32 "},"j":{"x_min":-42,"x_max":361,"ha":478,"o":"m 361 885 l 217 885 l 217 1017 l 361 1017 l 361 885 m 353 -17 q 285 -218 353 -150 q 103 -286 217 -286 q 32 -280 76 -286 q -42 -266 -12 -275 l -42 -145 l -35 -145 q 15 -161 -16 -152 q 78 -171 47 -171 q 156 -157 126 -171 q 201 -116 186 -143 q 220 -51 216 -89 q 225 41 225 -13 l 225 651 l 67 651 l 67 758 l 353 758 l 353 -17 "},"1":{"x_min":189,"x_max":735,"ha":883,"o":"m 735 0 l 189 0 l 189 103 l 399 103 l 399 780 l 189 780 l 189 872 q 280 879 231 872 q 354 899 329 886 q 403 942 385 916 q 424 1013 421 968 l 529 1013 l 529 103 l 735 103 l 735 0 "},"›":{"x_min":132,"x_max":505,"ha":631,"o":"m 505 412 l 132 117 l 132 251 l 383 442 l 132 633 l 132 768 l 505 473 l 505 412 "},"ћ":{"x_min":12,"x_max":759,"ha":879,"o":"m 759 0 l 631 0 l 631 431 q 624 529 631 484 q 602 601 618 575 q 553 644 585 630 q 471 658 521 658 q 362 632 418 658 q 253 566 305 606 l 253 0 l 125 0 l 125 859 l 12 859 l 12 951 l 125 951 l 125 1055 l 253 1055 l 253 951 l 471 951 l 471 859 l 253 859 l 253 673 q 376 751 312 723 q 507 779 440 779 q 694 705 630 779 q 759 491 759 631 l 759 0 "},"ℓ":{"x_min":10,"x_max":438,"ha":449,"o":"m 10 284 l 130 444 l 130 752 q 171 958 130 906 q 288 1010 213 1010 q 395 965 353 1010 q 438 847 438 921 q 397 695 438 785 q 245 449 356 605 l 245 169 q 254 94 245 109 q 282 80 264 80 q 323 91 300 80 q 418 152 346 102 l 418 42 q 342 -2 380 12 q 265 -17 303 -17 q 166 21 202 -17 q 130 146 130 60 l 130 298 l 76 232 l 10 284 m 245 608 q 327 766 311 723 q 343 847 343 810 q 338 884 343 867 q 325 912 334 900 q 310 924 318 920 q 291 929 301 929 q 273 924 281 929 q 260 911 264 920 q 249 859 253 897 q 245 762 245 822 l 245 608 "},"Т":{"x_min":0,"x_max":856,"ha":856,"o":"m 856 891 l 495 891 l 495 0 l 361 0 l 361 891 l 0 891 l 0 1010 l 856 1010 l 856 891 "},"<":{"x_min":172,"x_max":955,"ha":1137,"o":"m 955 52 l 172 399 l 172 484 l 955 832 l 955 709 l 337 442 l 955 174 l 955 52 "},"Ц":{"x_min":136,"x_max":997,"ha":1057,"o":"m 869 0 l 136 0 l 136 1010 l 270 1010 l 270 118 l 767 118 l 767 1010 l 901 1010 l 901 118 l 997 118 l 997 -229 l 869 -229 l 869 0 "},"t":{"x_min":42,"x_max":519,"ha":547,"o":"m 519 6 q 440 -8 483 -2 q 364 -15 398 -15 q 188 47 248 -15 q 128 247 128 109 l 128 651 l 42 651 l 42 758 l 128 758 l 128 976 l 256 976 l 256 758 l 519 758 l 519 651 l 256 651 l 256 304 q 258 211 256 244 q 277 148 261 177 q 318 108 292 121 q 398 96 344 96 q 463 105 429 96 q 512 120 497 114 l 519 120 l 519 6 "},"W":{"x_min":62,"x_max":1311,"ha":1373,"o":"m 1311 1010 l 1048 0 l 897 0 l 684 838 l 477 0 l 329 0 l 62 1010 l 200 1010 l 412 170 l 621 1010 l 757 1010 l 968 162 l 1179 1010 l 1311 1010 "},"а":{"x_min":71,"x_max":714,"ha":834,"o":"m 714 0 l 586 0 l 586 80 q 540 48 569 69 q 484 15 511 27 q 411 -10 452 0 q 314 -21 370 -21 q 141 46 212 -21 q 71 219 71 114 q 107 359 71 306 q 212 443 144 412 q 378 484 281 473 q 586 501 475 495 l 586 520 q 570 592 586 563 q 527 636 555 620 q 462 657 500 652 q 383 663 424 663 q 271 649 333 663 q 144 612 210 636 l 138 612 l 138 741 q 245 763 175 751 q 384 776 316 776 q 523 762 464 776 q 626 717 583 749 q 691 636 669 686 q 714 514 714 587 l 714 0 m 586 186 l 586 398 q 449 387 528 394 q 325 368 370 380 q 236 319 270 352 q 203 228 203 286 q 242 130 203 163 q 361 97 281 97 q 483 123 428 97 q 586 186 538 149 "},"Ф":{"x_min":71,"x_max":1067,"ha":1137,"o":"m 1067 512 q 1036 343 1067 417 q 952 220 1006 270 q 812 135 895 167 q 636 102 729 104 l 636 -11 l 502 -11 l 502 102 q 327 134 411 104 q 185 220 244 165 q 101 344 131 270 q 71 512 71 417 q 100 673 71 604 q 180 794 129 743 q 318 881 235 849 q 502 916 400 913 l 502 1021 l 636 1021 l 636 916 q 819 880 736 913 q 957 794 903 847 q 1037 674 1007 745 q 1067 512 1067 603 m 927 517 q 905 641 927 585 q 843 736 883 697 q 756 792 804 774 q 636 811 707 809 l 636 207 q 751 227 699 208 q 838 278 804 247 q 904 378 882 319 q 927 517 927 437 m 502 207 l 502 811 q 381 792 430 810 q 294 736 333 773 q 233 641 255 699 q 211 517 211 583 q 233 380 211 441 q 299 278 256 318 q 385 228 333 248 q 502 207 438 207 "},">":{"x_min":182,"x_max":965,"ha":1137,"o":"m 965 399 l 182 52 l 182 174 l 799 442 l 182 709 l 182 832 l 965 484 l 965 399 "},"v":{"x_min":41,"x_max":781,"ha":822,"o":"m 781 758 l 474 0 l 345 0 l 41 758 l 178 758 l 414 154 l 647 758 l 781 758 "},"Ї":{"x_min":85,"x_max":499,"ha":584,"o":"m 491 0 l 93 0 l 93 103 l 225 103 l 225 907 l 93 907 l 93 1010 l 491 1010 l 491 907 l 359 907 l 359 103 l 491 103 l 491 0 m 499 1137 l 365 1137 l 365 1269 l 499 1269 l 499 1137 m 219 1137 l 85 1137 l 85 1269 l 219 1269 l 219 1137 "},"О":{"x_min":78,"x_max":1016,"ha":1093,"o":"m 888 893 q 983 727 950 826 q 1016 504 1016 629 q 982 281 1016 379 q 888 116 948 182 q 740 13 826 48 q 546 -21 655 -21 q 353 14 440 -21 q 204 116 265 49 q 110 281 143 183 q 78 504 78 379 q 110 726 78 628 q 205 893 143 824 q 353 995 265 960 q 546 1031 442 1031 q 741 995 655 1031 q 888 893 828 959 m 876 504 q 787 808 876 701 q 547 915 699 915 q 305 808 393 915 q 218 504 218 701 q 307 200 218 305 q 547 95 396 95 q 786 200 697 95 q 876 504 876 305 "},"&":{"x_min":77,"x_max":1054,"ha":1009,"o":"m 535 807 q 497 909 535 872 q 399 946 459 946 q 299 904 338 946 q 260 802 260 862 q 286 712 260 751 q 401 619 313 672 q 501 688 467 643 q 535 807 535 734 m 668 214 l 343 529 q 301 502 322 519 q 260 457 280 486 q 229 394 241 431 q 217 310 217 356 q 274 150 217 211 q 439 90 332 90 q 564 120 502 90 q 668 214 626 151 m 872 617 l 872 551 q 855 405 872 486 q 797 249 838 323 l 1054 0 l 887 0 l 731 152 q 572 17 653 55 q 404 -21 490 -21 q 170 61 263 -21 q 77 277 77 143 q 94 385 77 339 q 136 463 112 430 q 195 523 159 495 q 266 573 230 552 q 158 671 191 622 q 126 796 126 721 q 143 882 126 841 q 197 957 161 923 q 286 1010 231 990 q 406 1031 340 1031 q 596 971 523 1031 q 669 821 669 912 q 660 753 669 791 q 633 686 652 716 q 571 622 611 653 q 467 570 531 592 l 719 325 q 733 385 729 352 q 739 452 738 417 q 740 537 740 490 q 740 617 740 584 l 872 617 "},"‛":{"x_min":-13,"x_max":264,"ha":373,"o":"m 264 1055 l 152 676 l -13 676 l 170 1055 l 264 1055 "},"I":{"x_min":93,"x_max":491,"ha":584,"o":"m 491 0 l 93 0 l 93 103 l 225 103 l 225 907 l 93 907 l 93 1010 l 491 1010 l 491 907 l 359 907 l 359 103 l 491 103 l 491 0 "},"G":{"x_min":78,"x_max":978,"ha":1077,"o":"m 978 74 q 797 8 895 36 q 607 -20 699 -20 q 391 12 489 -20 q 223 110 293 45 q 115 274 153 176 q 78 505 78 373 q 219 887 78 747 q 607 1028 360 1028 q 783 1007 693 1028 q 977 937 873 986 l 977 778 l 964 778 q 903 820 943 794 q 825 864 863 846 q 719 899 778 885 q 584 913 659 913 q 316 804 415 913 q 218 509 218 695 q 321 204 218 313 q 601 96 424 96 q 731 108 666 96 q 845 142 796 121 l 845 390 l 574 390 l 574 508 l 978 508 l 978 74 "},"`":{"x_min":231,"x_max":517,"ha":883,"o":"m 517 883 l 416 883 l 231 1137 l 395 1137 l 517 883 "},"Х":{"x_min":46,"x_max":906,"ha":952,"o":"m 906 1010 l 557 510 l 905 0 l 750 0 l 474 415 l 192 0 l 46 0 l 398 504 l 54 1010 l 208 1010 l 480 599 l 758 1010 l 906 1010 "},"r":{"x_min":125,"x_max":598,"ha":593,"o":"m 598 619 l 591 619 q 535 628 562 625 q 472 632 509 632 q 358 605 413 632 q 253 538 303 579 l 253 0 l 125 0 l 125 758 l 253 758 l 253 646 q 386 732 328 707 q 505 758 444 758 q 553 756 538 758 q 598 749 568 754 l 598 619 "},"₤":{"x_min":93,"x_max":789,"ha":883,"o":"m 789 0 l 93 0 l 93 141 q 196 202 163 159 q 239 329 229 246 l 132 329 l 132 421 l 244 421 l 244 515 l 132 515 l 132 607 l 243 607 l 243 720 q 329 942 243 855 q 553 1030 414 1030 q 676 1018 624 1030 q 771 995 727 1006 l 771 856 l 764 856 q 670 900 722 884 q 561 917 619 917 q 419 861 466 917 q 372 707 372 805 l 372 607 l 619 607 l 619 515 l 372 515 l 372 421 l 619 421 l 619 329 l 369 329 q 320 207 359 261 q 221 124 282 154 l 221 117 l 789 117 l 789 0 "},"ж":{"x_min":35,"x_max":1075,"ha":1108,"o":"m 1075 0 l 920 0 l 678 346 l 617 346 l 617 0 l 491 0 l 491 346 l 435 346 l 181 0 l 35 0 l 327 396 q 268 447 294 414 q 222 545 243 479 q 178 625 203 603 q 96 648 153 648 l 61 648 l 61 758 l 107 758 q 242 724 191 758 q 323 605 293 690 q 338 564 329 587 q 354 526 348 541 q 412 453 377 474 q 491 429 447 431 l 491 758 l 617 758 l 617 429 q 696 453 660 431 q 754 526 731 475 q 770 565 761 543 q 785 605 780 588 q 865 723 815 688 q 1000 758 915 758 l 1047 758 l 1047 648 l 1010 648 q 927 624 953 648 q 885 545 902 600 q 840 451 866 485 q 783 400 814 417 l 1075 0 "},"x":{"x_min":41,"x_max":781,"ha":822,"o":"m 781 0 l 619 0 l 405 291 l 189 0 l 41 0 l 336 377 l 44 758 l 205 758 l 417 471 l 631 758 l 781 758 l 483 384 l 781 0 "},"Ђ":{"x_min":-1,"x_max":1047,"ha":1101,"o":"m 1047 312 q 1018 178 1047 238 q 941 79 990 118 q 822 16 882 32 q 669 0 763 0 l 595 0 l 595 119 l 658 119 q 760 124 720 119 q 833 153 801 129 q 889 218 871 180 q 907 308 907 255 q 890 399 907 359 q 837 461 873 438 q 753 491 803 485 q 613 498 702 498 l 425 498 l 425 0 l 291 0 l 291 891 l -1 891 l -1 1010 l 764 1010 l 764 891 l 425 891 l 425 614 l 655 614 q 823 601 758 614 q 945 544 888 589 q 1022 445 997 504 q 1047 312 1047 386 "},"∞":{"x_min":109,"x_max":1280,"ha":1389,"o":"m 1280 450 q 1196 197 1280 288 q 973 107 1113 107 q 807 158 883 107 q 685 309 732 210 q 560 157 632 207 q 391 107 488 107 q 185 198 262 107 q 109 435 109 290 q 193 688 109 597 q 415 779 278 779 q 581 726 506 779 q 703 576 657 674 q 829 728 756 677 q 997 779 901 779 q 1203 687 1126 779 q 1280 450 1280 595 m 655 494 q 550 614 613 574 q 423 654 488 654 q 276 597 329 654 q 224 435 224 540 q 267 288 224 344 q 390 232 310 232 q 507 265 465 232 q 588 362 549 298 q 623 424 611 400 q 655 494 636 449 m 1165 450 q 1121 597 1165 541 q 998 654 1078 654 q 894 629 938 654 q 800 524 851 605 q 763 456 780 491 q 733 391 746 421 q 837 272 773 313 q 965 232 900 232 q 1112 288 1059 232 q 1165 450 1165 344 "},"с":{"x_min":72,"x_max":693,"ha":742,"o":"m 693 47 q 558 -3 614 10 q 447 -17 502 -17 q 295 7 364 -17 q 176 79 226 31 q 99 203 126 128 q 72 377 72 277 q 172 666 72 558 q 447 775 272 775 q 576 756 513 775 q 693 711 640 738 l 693 570 l 685 570 q 560 641 622 618 q 441 664 499 664 q 266 588 328 664 q 204 377 204 512 q 265 168 204 242 q 441 94 327 94 q 521 104 481 94 q 593 130 561 114 q 647 161 619 143 q 685 188 674 179 l 693 188 l 693 47 "},"h":{"x_min":125,"x_max":759,"ha":879,"o":"m 759 0 l 631 0 l 631 431 q 624 529 631 484 q 602 601 618 575 q 553 644 585 630 q 471 658 521 658 q 362 632 418 658 q 253 566 305 606 l 253 0 l 125 0 l 125 1055 l 253 1055 l 253 673 q 376 751 312 723 q 507 779 440 779 q 694 705 630 779 q 759 491 759 631 l 759 0 "},"я":{"x_min":45,"x_max":708,"ha":833,"o":"m 708 0 l 580 0 l 580 301 l 429 301 l 194 0 l 45 0 l 300 313 q 156 396 201 340 q 111 543 111 452 q 138 645 111 603 q 206 713 165 687 q 300 748 247 739 q 415 758 353 758 l 708 758 l 708 0 m 580 401 l 580 656 l 419 656 q 344 652 367 656 q 294 634 321 649 q 255 593 268 619 q 243 538 243 568 q 250 478 243 501 q 282 434 258 455 q 343 408 307 415 q 423 401 379 401 l 580 401 "},".":{"x_min":172,"x_max":334,"ha":505,"o":"m 334 0 l 172 0 l 172 193 l 334 193 l 334 0 "},"Ё":{"x_min":136,"x_max":801,"ha":878,"o":"m 801 0 l 136 0 l 136 1010 l 801 1010 l 801 891 l 270 891 l 270 614 l 801 614 l 801 495 l 270 495 l 270 119 l 801 119 l 801 0 m 702 1137 l 568 1137 l 568 1269 l 702 1269 l 702 1137 m 422 1137 l 288 1137 l 288 1269 l 422 1269 l 422 1137 "},";":{"x_min":157,"x_max":447,"ha":631,"o":"m 397 565 l 235 565 l 235 758 l 397 758 l 397 565 m 447 193 l 255 -251 l 157 -251 l 274 193 l 447 193 "},"f":{"x_min":46,"x_max":533,"ha":488,"o":"m 533 932 l 526 932 q 471 944 505 938 q 411 951 437 951 q 292 914 329 951 q 255 783 255 878 l 255 758 l 486 758 l 486 651 l 260 651 l 260 0 l 132 0 l 132 651 l 46 651 l 46 758 l 132 758 l 132 783 q 199 989 132 917 q 393 1062 266 1062 q 470 1057 435 1062 q 533 1048 504 1053 l 533 932 "},"“":{"x_min":-13,"x_max":536,"ha":638,"o":"m 536 676 l 445 676 l 261 1055 l 423 1055 l 536 676 m 262 676 l 171 676 l -13 1055 l 149 1055 l 262 676 "},"Г":{"x_min":136,"x_max":788,"ha":787,"o":"m 788 891 l 270 891 l 270 0 l 136 0 l 136 1010 l 788 1010 l 788 891 "},"A":{"x_min":18,"x_max":932,"ha":950,"o":"m 932 0 l 789 0 l 690 281 l 252 281 l 154 0 l 18 0 l 385 1010 l 564 1010 l 932 0 m 649 397 l 471 892 l 293 397 l 649 397 "},"6":{"x_min":93,"x_max":808,"ha":883,"o":"m 808 327 q 706 76 808 173 q 457 -21 605 -21 q 322 2 383 -21 q 214 70 261 25 q 124 219 156 126 q 93 443 93 312 q 121 681 93 577 q 213 866 150 785 q 367 985 273 942 q 587 1029 462 1029 q 655 1025 627 1029 q 710 1013 682 1022 l 710 884 l 703 884 q 645 903 684 894 q 567 912 607 912 q 335 820 422 912 q 234 574 248 729 q 346 627 291 609 q 474 645 401 645 q 587 633 538 645 q 688 585 636 621 q 777 480 747 543 q 808 327 808 417 m 670 321 q 651 426 670 384 q 590 497 632 467 q 521 526 559 519 q 442 533 483 533 q 335 519 384 533 q 233 477 285 505 q 231 448 232 462 q 231 413 231 434 q 252 245 231 307 q 313 147 274 183 q 380 103 344 117 q 459 90 417 90 q 613 149 557 90 q 670 321 670 209 "},"‘":{"x_min":-13,"x_max":264,"ha":373,"o":"m 264 676 l 170 676 l -13 1055 l 152 1055 l 264 676 "},"Ь":{"x_min":136,"x_max":891,"ha":945,"o":"m 751 310 q 734 399 751 361 q 681 462 717 438 q 594 492 643 487 q 457 498 546 498 l 270 498 l 270 115 l 453 115 q 592 123 544 115 q 677 157 641 132 q 733 219 715 184 q 751 310 751 255 m 891 312 q 862 179 891 239 q 785 82 833 120 q 663 19 728 38 q 495 0 598 0 l 136 0 l 136 1010 l 270 1010 l 270 614 l 499 614 q 667 602 602 614 q 789 545 732 590 q 866 446 841 505 q 891 312 891 387 "},"O":{"x_min":78,"x_max":1016,"ha":1093,"o":"m 888 893 q 983 727 950 826 q 1016 504 1016 629 q 982 281 1016 379 q 888 116 948 182 q 740 13 826 48 q 546 -21 655 -21 q 353 14 440 -21 q 204 116 265 49 q 110 281 143 183 q 78 504 78 379 q 110 726 78 628 q 205 893 143 824 q 353 995 265 960 q 546 1031 442 1031 q 741 995 655 1031 q 888 893 828 959 m 876 504 q 787 808 876 701 q 547 915 699 915 q 305 808 393 915 q 218 504 218 701 q 307 200 218 305 q 547 95 396 95 q 786 200 697 95 q 876 504 876 305 "},"n":{"x_min":125,"x_max":759,"ha":879,"o":"m 759 0 l 631 0 l 631 431 q 624 529 631 484 q 602 601 618 575 q 553 644 585 630 q 471 658 521 658 q 362 632 418 658 q 253 566 305 606 l 253 0 l 125 0 l 125 758 l 253 758 l 253 673 q 376 751 312 723 q 507 779 440 779 q 694 705 630 779 q 759 491 759 631 l 759 0 "},"3":{"x_min":113,"x_max":779,"ha":883,"o":"m 704 486 q 757 413 736 457 q 779 299 779 368 q 753 172 779 229 q 683 71 728 114 q 563 1 632 24 q 412 -21 494 -21 q 246 0 328 -21 q 113 42 165 19 l 113 185 l 123 185 q 259 121 180 146 q 409 96 337 96 q 501 110 452 96 q 579 152 549 124 q 625 218 610 182 q 641 309 641 254 q 623 399 641 363 q 575 455 606 434 q 501 484 545 476 q 408 492 458 492 l 347 492 l 347 604 l 394 604 q 558 647 497 604 q 620 773 620 690 q 604 837 620 809 q 560 882 588 865 q 498 907 531 900 q 423 914 465 914 q 285 890 358 914 q 148 825 213 867 l 142 825 l 142 967 q 270 1010 190 990 q 426 1031 351 1031 q 556 1017 500 1031 q 658 974 613 1003 q 732 895 707 941 q 758 787 758 849 q 698 640 758 703 q 558 561 639 577 l 558 552 q 633 529 590 546 q 704 486 675 512 "},"9":{"x_min":77,"x_max":791,"ha":883,"o":"m 791 565 q 760 325 791 433 q 669 141 730 217 q 515 22 608 64 q 296 -20 422 -20 q 230 -16 261 -20 q 175 -4 199 -12 l 175 125 l 181 125 q 237 106 201 115 q 316 97 273 97 q 551 186 466 97 q 649 434 636 276 q 531 380 586 396 q 410 364 475 364 q 297 376 348 364 q 196 423 247 388 q 107 529 137 465 q 77 681 77 592 q 178 933 77 836 q 426 1031 280 1031 q 562 1008 499 1031 q 671 940 624 985 q 759 795 728 883 q 791 565 791 706 m 653 595 q 631 764 653 700 q 572 863 609 827 q 503 906 540 893 q 424 920 467 920 q 271 858 327 920 q 215 687 215 797 q 233 582 215 623 q 294 511 251 541 q 361 483 325 490 q 442 476 397 476 q 549 490 495 476 q 650 531 603 504 q 651 559 650 545 q 653 595 653 573 "},"l":{"x_min":127,"x_max":255,"ha":382,"o":"m 255 0 l 127 0 l 127 1055 l 255 1055 l 255 0 "},"∂":{"x_min":101,"x_max":777,"ha":883,"o":"m 777 568 q 750 335 777 457 q 668 129 724 213 q 541 12 610 45 q 396 -21 472 -21 q 183 64 265 -21 q 101 288 101 150 q 192 540 101 442 q 420 639 283 639 q 535 621 481 639 q 643 559 589 603 q 645 597 644 577 q 646 635 646 617 q 592 851 646 782 q 435 920 538 920 q 320 898 382 920 q 205 840 258 877 l 198 840 l 198 970 q 321 1015 252 1000 q 454 1031 389 1031 q 617 994 547 1031 q 728 872 686 957 q 767 744 757 814 q 777 568 777 674 m 639 460 q 546 510 598 492 q 446 529 495 529 q 293 467 350 529 q 237 290 237 405 q 282 139 237 191 q 404 88 328 88 q 546 153 491 88 q 624 348 601 219 q 632 398 629 370 q 639 460 636 425 "},"4":{"x_min":52,"x_max":816,"ha":883,"o":"m 816 284 l 666 284 l 666 0 l 536 0 l 536 284 l 52 284 l 52 440 l 541 1010 l 666 1010 l 666 393 l 816 393 l 816 284 m 536 393 l 536 848 l 144 393 l 536 393 "},"p":{"x_min":125,"x_max":792,"ha":865,"o":"m 792 388 q 765 219 792 295 q 690 90 739 143 q 585 12 646 39 q 457 -15 524 -15 q 350 -2 398 -15 q 253 37 302 10 l 253 -279 l 125 -279 l 125 758 l 253 758 l 253 678 q 367 750 303 721 q 502 779 430 779 q 715 675 639 779 q 792 388 792 572 m 660 385 q 613 590 660 522 q 469 658 566 658 q 359 634 414 658 q 253 571 303 610 l 253 142 q 346 108 307 117 q 434 100 385 100 q 600 171 540 100 q 660 385 660 243 "},"Ъ":{"x_min":0,"x_max":1034,"ha":1088,"o":"m 894 310 q 877 399 894 361 q 823 462 860 438 q 737 492 786 487 q 599 498 688 498 l 412 498 l 412 115 l 596 115 q 735 123 686 115 q 820 157 783 132 q 876 219 858 184 q 894 310 894 255 m 1034 312 q 1005 179 1034 239 q 928 82 976 120 q 805 19 871 38 q 637 0 740 0 l 278 0 l 278 891 l 0 891 l 0 1010 l 412 1010 l 412 614 l 641 614 q 809 602 744 614 q 932 545 875 590 q 1009 446 984 505 q 1034 312 1034 387 "},"‡":{"x_min":127,"x_max":757,"ha":883,"o":"m 757 344 l 483 347 l 487 84 l 397 84 l 400 347 l 127 344 l 127 431 l 400 427 l 400 711 l 127 708 l 127 795 l 400 791 l 397 1055 l 487 1055 l 483 791 l 757 795 l 757 708 l 483 711 l 483 427 l 757 431 l 757 344 "},"√":{"x_min":91,"x_max":1178,"ha":1137,"o":"m 1178 1213 l 581 -102 l 511 -102 l 251 572 l 91 572 l 91 666 l 357 666 l 569 109 l 1064 1213 l 1178 1213 "},"Ю":{"x_min":136,"x_max":1359,"ha":1436,"o":"m 1219 504 q 1131 810 1219 705 q 896 915 1044 915 q 658 810 746 915 q 571 504 571 706 q 658 200 571 305 q 896 95 746 95 q 1131 200 1044 95 q 1219 504 1219 305 m 433 489 l 270 489 l 270 0 l 136 0 l 136 1010 l 270 1010 l 270 606 l 439 606 q 586 920 463 809 q 895 1031 709 1031 q 1235 890 1112 1031 q 1359 504 1359 750 q 1234 118 1359 257 q 895 -21 1109 -21 q 562 112 686 -21 q 433 489 437 245 "}}}
